<svg xmlns="http://www.w3.org/2000/svg" xmlns:xlink="http://www.w3.org/1999/xlink" width="500" zoomAndPan="magnify" viewBox="0 0 375 374.999991" height="500" preserveAspectRatio="xMidYMid meet" version="1.0"><defs><g/><clipPath id="f4a6cf237d"><path d="M 30 165 L 337 165 L 337 248.429688 L 30 248.429688 Z M 30 165 " clip-rule="nonzero"/></clipPath><clipPath id="243b970899"><path d="M 162.988281 196.523438 L 203.484375 196.523438 L 203.484375 216.023438 L 162.988281 216.023438 Z M 162.988281 196.523438 " clip-rule="nonzero"/></clipPath><clipPath id="33b3b86aba"><path d="M 172.726562 196.523438 L 193.742188 196.523438 C 199.121094 196.523438 203.480469 200.886719 203.480469 206.273438 C 203.480469 211.65625 199.121094 216.023438 193.742188 216.023438 L 172.726562 216.023438 C 167.347656 216.023438 162.988281 211.65625 162.988281 206.273438 C 162.988281 200.886719 167.347656 196.523438 172.726562 196.523438 Z M 172.726562 196.523438 " clip-rule="nonzero"/></clipPath></defs><path fill="#2b2b2b" d="M 48.476562 183.15625 L 43.945312 184.925781 C 42.410156 185.523438 41.40625 189.457031 41.976562 196.011719 L 48.292969 193.550781 C 47.859375 189.800781 47.789062 186.167969 48.476562 183.15625 Z M 48.476562 183.15625 " fill-opacity="1" fill-rule="nonzero"/><path fill="#2b2b2b" d="M 69.46875 174.945312 C 69.167969 175.058594 68.894531 175.152344 68.644531 175.246094 C 67.957031 175.496094 67.382812 175.703125 66.859375 175.910156 C 63.949219 177.039062 63.402344 177.542969 62.945312 181.316406 C 62.714844 183.269531 62.714844 185.476562 62.945312 187.824219 L 69.308594 185.339844 C 68.894531 181.730469 68.804688 178.003906 69.46875 174.945312 Z M 69.46875 174.945312 " fill-opacity="1" fill-rule="nonzero"/><path fill="#2b2b2b" d="M 58.984375 179.0625 C 58.046875 179.429688 58.503906 179.246094 56.832031 179.890625 L 54.429688 180.832031 C 53.125 181.339844 51.980469 184.628906 52.367188 190.765625 C 52.390625 191.136719 52.414062 191.527344 52.460938 191.917969 L 58.800781 189.457031 C 58.410156 186.167969 58.296875 182.28125 58.984375 179.0625 Z M 58.984375 179.0625 " fill-opacity="1" fill-rule="nonzero"/><path fill="#2b2b2b" d="M 79.972656 170.875 L 77.820312 171.703125 L 75.417969 172.644531 C 74.207031 173.128906 72.921875 176.027344 73.359375 182.625 C 73.382812 182.996094 73.402344 183.363281 73.449219 183.730469 L 79.835938 181.246094 C 79.402344 177.660156 79.308594 173.933594 79.972656 170.875 Z M 79.972656 170.875 " fill-opacity="1" fill-rule="nonzero"/><path fill="#2b2b2b" d="M 70.292969 223.882812 L 63.789062 226.414062 C 65.621094 229.679688 67.523438 232.601562 69.445312 235.015625 C 73.289062 239.820312 76.332031 241.476562 77.636719 240.949219 L 82.195312 239.175781 C 81.78125 238.878906 81.371094 238.554688 80.933594 238.1875 C 76.769531 234.648438 73.105469 229.105469 70.292969 223.882812 Z M 70.292969 223.882812 " fill-opacity="1" fill-rule="nonzero"/><path fill="#2b2b2b" d="M 80.773438 219.789062 L 74.273438 222.320312 C 76.675781 226.667969 79.242188 230.347656 81.757812 233.035156 C 85.949219 237.519531 87.207031 237.335938 90.203125 236.164062 C 90.753906 235.957031 91.347656 235.703125 92.011719 235.40625 C 92.242188 235.3125 92.472656 235.222656 92.722656 235.105469 C 87.847656 231.679688 83.453125 224.664062 80.773438 219.789062 Z M 80.773438 219.789062 " fill-opacity="1" fill-rule="nonzero"/><path fill="#2b2b2b" d="M 62.257812 232.1875 C 61.433594 230.851562 60.609375 229.449219 59.808594 227.953125 L 53.285156 230.507812 C 59.257812 241.222656 65.003906 245.890625 67.15625 245.042969 L 71.6875 243.269531 C 68.664062 241.132812 65.507812 237.429688 62.257812 232.1875 Z M 62.257812 232.1875 " fill-opacity="1" fill-rule="nonzero"/><path fill="#2b2b2b" d="M 91.28125 215.695312 L 84.78125 218.226562 C 87.183594 222.574219 89.746094 226.253906 92.265625 228.941406 C 96.429688 233.40625 97.734375 233.21875 100.847656 232 C 101.398438 231.792969 101.992188 231.542969 102.632812 231.265625 C 102.816406 231.195312 103.023438 231.105469 103.230469 231.011719 C 98.308594 227.515625 93.820312 220.296875 91.28125 215.695312 Z M 91.28125 215.695312 " fill-opacity="1" fill-rule="nonzero"/><path fill="#2b2b2b" d="M 60.953125 200.378906 L 54.429688 202.910156 C 55.34375 206.496094 56.558594 210.222656 58.023438 213.996094 L 64.546875 211.441406 C 63.789062 209.488281 62.28125 205.324219 60.953125 200.378906 Z M 60.953125 200.378906 " fill-opacity="1" fill-rule="nonzero"/><path fill="#2b2b2b" d="M 71.824219 197.757812 C 71.710938 197.320312 71.574219 196.839844 71.4375 196.308594 L 64.957031 198.839844 C 65.964844 202.773438 67.246094 206.613281 68.527344 209.949219 L 75.050781 207.394531 C 73.816406 204.152344 72.742188 200.910156 71.824219 197.757812 Z M 71.824219 197.757812 " fill-opacity="1" fill-rule="nonzero"/><path fill="#2b2b2b" d="M 82.332031 193.664062 C 82.214844 193.273438 82.078125 192.769531 81.941406 192.214844 L 75.441406 194.746094 C 76.355469 198.332031 77.570312 202.082031 79.035156 205.832031 L 85.558594 203.277344 C 84.300781 200.058594 83.222656 196.816406 82.332031 193.664062 Z M 82.332031 193.664062 " fill-opacity="1" fill-rule="nonzero"/><path fill="#2b2b2b" d="M 50.492188 204.449219 L 43.945312 207.003906 C 44.90625 210.753906 46.121094 214.453125 47.539062 218.089844 L 54.0625 215.535156 C 53.671875 214.523438 51.980469 210.0625 50.492188 204.449219 Z M 50.492188 204.449219 " fill-opacity="1" fill-rule="nonzero"/><path fill="#2b2b2b" d="M 40.925781 223.402344 C 41.472656 224.457031 42.367188 225.976562 43.257812 226.757812 C 43.488281 226.667969 45.824219 225.769531 46.097656 225.65625 C 45.546875 224.457031 45.019531 223.238281 44.519531 221.996094 Z M 40.925781 223.402344 " fill-opacity="1" fill-rule="nonzero"/><path fill="#2b2b2b" d="M 41.929688 215.097656 C 41.382812 216.316406 40.078125 217.167969 38.773438 217.261719 C 38.816406 217.445312 38.839844 217.628906 38.886719 217.8125 L 42.410156 216.433594 C 42.25 215.996094 42.089844 215.535156 41.929688 215.097656 Z M 41.929688 215.097656 " fill-opacity="1" fill-rule="nonzero"/><path fill="#2b2b2b" d="M 43.121094 218.410156 L 39.460938 219.835938 C 39.597656 220.25 39.734375 220.664062 39.894531 221.078125 L 43.578125 219.652344 C 43.417969 219.238281 43.257812 218.824219 43.121094 218.410156 Z M 43.121094 218.410156 " fill-opacity="1" fill-rule="nonzero"/><path fill="#2b2b2b" d="M 35.476562 221.398438 L 33.78125 222.066406 C 33.875 222.433594 34.011719 222.847656 34.171875 223.308594 L 35.910156 222.640625 C 35.773438 222.203125 35.613281 221.789062 35.476562 221.398438 Z M 35.476562 221.398438 " fill-opacity="1" fill-rule="nonzero"/><path fill="#2b2b2b" d="M 34.421875 223.859375 C 34.722656 224.527344 35.019531 225.011719 35.246094 225.308594 L 36.828125 224.6875 C 36.597656 224.207031 36.371094 223.699219 36.164062 223.171875 Z M 34.421875 223.859375 " fill-opacity="1" fill-rule="nonzero"/><path fill="#2b2b2b" d="M 35.203125 220.480469 L 33.621094 221.101562 C 33.644531 221.285156 33.691406 221.539062 33.738281 221.8125 L 35.40625 221.171875 C 35.339844 220.941406 35.246094 220.710938 35.203125 220.480469 Z M 35.203125 220.480469 " fill-opacity="1" fill-rule="nonzero"/><path fill="#2b2b2b" d="M 319.1875 193.527344 L 325.507812 195.988281 C 326.078125 189.433594 325.070312 185.5 323.539062 184.902344 L 319.007812 183.132812 C 319.691406 186.167969 319.648438 189.800781 319.1875 193.527344 Z M 319.1875 193.527344 " fill-opacity="1" fill-rule="nonzero"/><path fill="#2b2b2b" d="M 298.175781 185.339844 L 304.539062 187.824219 C 304.746094 185.476562 304.769531 183.269531 304.539062 181.316406 C 304.082031 177.542969 303.53125 177.039062 300.625 175.910156 C 300.097656 175.703125 299.527344 175.496094 298.839844 175.246094 C 298.566406 175.152344 298.292969 175.039062 298.015625 174.945312 C 298.679688 178.003906 298.613281 181.730469 298.175781 185.339844 Z M 298.175781 185.339844 " fill-opacity="1" fill-rule="nonzero"/><path fill="#2b2b2b" d="M 308.683594 189.433594 L 315.023438 191.894531 C 315.046875 191.503906 315.09375 191.136719 315.113281 190.746094 C 315.503906 184.582031 314.359375 181.316406 313.054688 180.808594 L 310.652344 179.867188 L 309.253906 179.335938 L 308.5 179.039062 C 308.613281 179.542969 308.707031 180.074219 308.773438 180.625 C 309.117188 183.363281 309.050781 186.375 308.683594 189.433594 Z M 308.683594 189.433594 " fill-opacity="1" fill-rule="nonzero"/><path fill="#2b2b2b" d="M 287.671875 181.246094 L 294.058594 183.730469 C 294.078125 183.363281 294.125 182.996094 294.148438 182.625 C 294.558594 176.027344 293.300781 173.128906 292.089844 172.644531 L 289.683594 171.703125 L 287.535156 170.875 C 288.175781 173.933594 288.082031 177.660156 287.671875 181.246094 Z M 287.671875 181.246094 " fill-opacity="1" fill-rule="nonzero"/><path fill="#2b2b2b" d="M 303.691406 226.414062 L 297.191406 223.882812 C 294.355469 229.105469 290.714844 234.648438 286.527344 238.210938 C 286.113281 238.578125 285.679688 238.902344 285.265625 239.199219 L 289.820312 240.972656 C 291.125 241.476562 294.171875 239.84375 298.015625 235.039062 C 299.960938 232.601562 301.886719 229.679688 303.691406 226.414062 Z M 303.691406 226.414062 " fill-opacity="1" fill-rule="nonzero"/><path fill="#2b2b2b" d="M 286.710938 219.789062 C 284.03125 224.664062 279.636719 231.679688 274.761719 235.128906 C 275.011719 235.222656 275.242188 235.335938 275.46875 235.429688 C 276.15625 235.726562 276.730469 235.957031 277.277344 236.1875 C 280.277344 237.359375 281.535156 237.542969 285.726562 233.058594 C 288.242188 230.367188 290.804688 226.6875 293.210938 222.34375 Z M 286.710938 219.789062 " fill-opacity="1" fill-rule="nonzero"/><path fill="#2b2b2b" d="M 305.226562 232.1875 C 301.976562 237.429688 298.816406 241.15625 295.796875 243.292969 L 300.328125 245.0625 C 302.480469 245.890625 308.226562 241.246094 314.199219 230.53125 L 307.675781 227.976562 C 306.875 229.425781 306.050781 230.851562 305.226562 232.1875 Z M 305.226562 232.1875 " fill-opacity="1" fill-rule="nonzero"/><path fill="#2b2b2b" d="M 276.226562 215.695312 C 273.683594 220.320312 269.199219 227.539062 264.277344 231.035156 C 264.484375 231.128906 264.691406 231.195312 264.871094 231.289062 C 265.515625 231.566406 266.109375 231.816406 266.660156 232.023438 C 269.769531 233.242188 271.054688 233.425781 275.242188 228.964844 C 277.757812 226.277344 280.324219 222.597656 282.726562 218.25 Z M 276.226562 215.695312 " fill-opacity="1" fill-rule="nonzero"/><path fill="#2b2b2b" d="M 313.054688 202.910156 L 306.53125 200.378906 C 305.203125 205.324219 303.691406 209.488281 302.914062 211.464844 L 309.4375 214.019531 C 310.902344 210.246094 312.117188 206.496094 313.054688 202.910156 Z M 313.054688 202.910156 " fill-opacity="1" fill-rule="nonzero"/><path fill="#2b2b2b" d="M 302.527344 198.816406 L 296.046875 196.285156 C 295.910156 196.816406 295.773438 197.296875 295.660156 197.734375 C 294.765625 200.910156 293.691406 204.152344 292.429688 207.371094 L 298.953125 209.925781 C 300.257812 206.589844 301.519531 202.75 302.527344 198.816406 Z M 302.527344 198.816406 " fill-opacity="1" fill-rule="nonzero"/><path fill="#2b2b2b" d="M 292.066406 194.746094 L 285.566406 192.214844 C 285.425781 192.792969 285.289062 193.273438 285.175781 193.664062 C 284.28125 196.839844 283.207031 200.082031 281.949219 203.300781 L 288.472656 205.855469 C 289.914062 202.058594 291.125 198.3125 292.066406 194.746094 Z M 292.066406 194.746094 " fill-opacity="1" fill-rule="nonzero"/><path fill="#2b2b2b" d="M 322.714844 210.015625 C 322.804688 209.695312 322.898438 209.371094 322.988281 209.074219 C 323.195312 208.359375 323.378906 207.695312 323.539062 207.003906 L 316.992188 204.449219 C 315.503906 210.0625 313.808594 214.523438 313.421875 215.558594 L 319.945312 218.113281 C 320.859375 215.742188 321.683594 213.351562 322.417969 211.003906 C 322.507812 210.660156 322.601562 210.339844 322.714844 210.015625 Z M 322.714844 210.015625 " fill-opacity="1" fill-rule="nonzero"/><path fill="#2b2b2b" d="M 321.386719 225.632812 C 321.476562 225.65625 324.085938 226.6875 324.226562 226.734375 C 325.117188 225.953125 326.03125 224.4375 326.558594 223.378906 L 322.964844 221.976562 C 322.460938 223.21875 321.9375 224.457031 321.386719 225.632812 Z M 321.386719 225.632812 " fill-opacity="1" fill-rule="nonzero"/><path fill="#2b2b2b" d="M 325.550781 215.097656 C 325.390625 215.558594 325.230469 215.996094 325.070312 216.457031 L 328.597656 217.835938 C 328.640625 217.652344 328.6875 217.46875 328.710938 217.285156 C 327.40625 217.167969 326.101562 216.316406 325.550781 215.097656 Z M 325.550781 215.097656 " fill-opacity="1" fill-rule="nonzero"/><path fill="#2b2b2b" d="M 323.90625 219.652344 L 327.589844 221.078125 C 327.75 220.664062 327.886719 220.25 328.023438 219.835938 L 324.363281 218.410156 C 324.226562 218.824219 324.066406 219.238281 323.90625 219.652344 Z M 323.90625 219.652344 " fill-opacity="1" fill-rule="nonzero"/><path fill="#2b2b2b" d="M 331.550781 222.617188 L 333.289062 223.285156 C 333.472656 222.824219 333.609375 222.390625 333.679688 222.042969 L 331.984375 221.378906 C 331.871094 221.789062 331.710938 222.203125 331.550781 222.617188 Z M 331.550781 222.617188 " fill-opacity="1" fill-rule="nonzero"/><path fill="#2b2b2b" d="M 330.65625 224.710938 L 332.234375 225.332031 C 332.464844 225.035156 332.761719 224.550781 333.058594 223.882812 L 331.320312 223.21875 C 331.113281 223.722656 330.886719 224.230469 330.65625 224.710938 Z M 330.65625 224.710938 " fill-opacity="1" fill-rule="nonzero"/><path fill="#2b2b2b" d="M 332.074219 221.148438 L 333.746094 221.789062 C 333.816406 221.515625 333.839844 221.261719 333.859375 221.078125 L 332.28125 220.457031 C 332.234375 220.710938 332.144531 220.941406 332.074219 221.148438 Z M 332.074219 221.148438 " fill-opacity="1" fill-rule="nonzero"/><g clip-path="url(#f4a6cf237d)"><path fill="#2b2b2b" d="M 335.738281 218.777344 L 331.894531 217.285156 C 332.167969 215.558594 332.144531 214.039062 331.664062 213.027344 L 332.714844 211.121094 C 333.21875 210.199219 332.488281 208.980469 331.25 208.5 C 330.3125 208.128906 329.351562 208.335938 328.984375 209.027344 L 327.933594 210.914062 L 325.917969 210.132812 C 327.476562 204.726562 328.4375 199.597656 328.734375 195.160156 C 329.007812 190.859375 328.664062 187.546875 327.679688 185.269531 C 326.996094 183.636719 325.964844 182.535156 324.660156 182.027344 C 319.832031 180.144531 286.480469 167.148438 282.679688 165.675781 C 279.523438 164.457031 275.449219 166.851562 270.847656 172.621094 C 267.160156 177.269531 263.523438 183.660156 260.457031 190.882812 C 249.878906 186.605469 238.960938 183.222656 227.839844 180.785156 C 213.371094 177.589844 198.539062 175.980469 183.730469 175.980469 C 168.921875 175.980469 154.089844 177.589844 139.621094 180.785156 C 128.519531 183.246094 117.582031 186.628906 107.003906 190.882812 C 103.9375 183.660156 100.300781 177.269531 96.613281 172.621094 C 92.035156 166.851562 87.9375 164.457031 84.78125 165.675781 C 80.980469 167.148438 47.628906 180.164062 42.800781 182.027344 C 35.660156 184.8125 39.390625 202.632812 41.542969 210.132812 L 39.527344 210.914062 L 38.476562 209.027344 C 37.445312 207.164062 33.691406 209.257812 34.742188 211.121094 L 35.796875 213.027344 C 35.316406 214.039062 35.292969 215.558594 35.566406 217.285156 L 31.722656 218.777344 C 29 219.835938 32.683594 229.378906 35.40625 228.320312 L 39.253906 226.828125 C 42.046875 231.128906 43.695312 229.953125 44.90625 229.472656 L 46.578125 232.460938 C 47.308594 233.796875 49.714844 233.128906 50.332031 231.65625 C 52.277344 235.222656 54.359375 238.417969 56.441406 241.039062 C 59.601562 245.019531 62.53125 247.386719 65.074219 248.078125 C 66.21875 248.398438 67.292969 248.351562 68.277344 247.984375 C 76.996094 244.582031 101.304688 235.105469 110.253906 231.632812 C 113.414062 230.414062 114.8125 225.863281 114.332031 218.503906 C 113.941406 212.59375 112.339844 205.417969 109.773438 198.035156 C 157.292969 178.808594 210.191406 178.808594 257.707031 198.035156 C 255.144531 205.417969 253.542969 212.59375 253.152344 218.503906 C 252.671875 225.863281 254.070312 230.414062 257.226562 231.632812 C 266.15625 235.105469 290.464844 244.582031 299.207031 247.984375 C 300.191406 248.375 301.265625 248.398438 302.410156 248.078125 C 304.953125 247.386719 307.882812 245.019531 311.039062 241.039062 C 313.125 238.417969 315.183594 235.222656 317.152344 231.65625 C 317.175781 231.703125 317.199219 231.773438 317.242188 231.816406 C 317.449219 232.207031 317.816406 232.578125 318.273438 232.828125 C 318.386719 232.898438 318.523438 232.96875 318.640625 233.011719 C 318.984375 233.152344 319.328125 233.199219 319.667969 233.199219 C 320.242188 233.175781 320.699219 232.898438 320.929688 232.484375 L 322.601562 229.496094 C 323.8125 229.953125 325.4375 231.152344 328.253906 226.851562 L 332.097656 228.34375 C 333.585938 228.921875 335.121094 226.574219 335.96875 224.367188 C 336.792969 222.136719 337.25 219.351562 335.738281 218.777344 Z M 330.40625 209.328125 C 330.65625 209.304688 330.910156 209.394531 331.113281 209.511719 C 331.59375 209.785156 332.03125 210.382812 331.457031 210.453125 C 331.273438 210.476562 331.089844 210.429688 330.910156 210.359375 C 330.609375 210.246094 330.335938 210.039062 330.175781 209.785156 C 330.175781 209.785156 330.175781 209.761719 330.152344 209.761719 C 330.015625 209.488281 330.105469 209.328125 330.40625 209.328125 Z M 329.742188 210.589844 C 330.085938 210.9375 330.519531 211.1875 331.023438 211.28125 C 329.671875 213.695312 330.792969 211.695312 329.125 214.683594 C 328.757812 214.824219 327.933594 214.363281 327.863281 213.972656 C 328.460938 212.867188 327.933594 213.832031 329.742188 210.589844 Z M 39.640625 213.972656 C 39.574219 214.363281 38.75 214.824219 38.382812 214.683594 C 37.125 212.40625 38.382812 214.660156 36.484375 211.28125 C 36.964844 211.1875 37.421875 210.9375 37.765625 210.589844 C 38.316406 211.601562 39.117188 213.027344 39.640625 213.972656 Z M 37.078125 209.328125 C 37.902344 209.371094 36.894531 210.546875 36.027344 210.453125 C 35.246094 210.359375 36.230469 209.257812 37.078125 209.328125 Z M 34.949219 226.667969 C 33.78125 225.929688 32.132812 221.652344 32.5 220.320312 L 35.957031 218.984375 C 36.484375 221.101562 37.375 223.402344 38.40625 225.332031 Z M 43.191406 228 C 41.726562 227.976562 37.765625 221.078125 37.421875 215.765625 C 38.816406 216.984375 41.816406 215.007812 40.878906 213.328125 L 40.511719 212.660156 L 42.136719 212.039062 C 43.601562 216.800781 45.457031 221.628906 47.628906 226.296875 C 47.425781 226.34375 43.394531 227.910156 43.191406 228 Z M 47.8125 231.726562 L 46.257812 228.941406 L 47.609375 228.414062 L 49.074219 231.035156 C 49.003906 231.402344 48.179688 231.863281 47.8125 231.726562 Z M 67.566406 246.097656 C 63.265625 247.777344 53.535156 236.808594 46.484375 218.503906 C 39.503906 200.425781 39.183594 185.546875 43.535156 183.84375 L 50.238281 181.222656 C 47.746094 187.25 49.898438 197.78125 51.542969 204.035156 C 52.644531 208.199219 53.949219 212.109375 55.117188 215.144531 C 56.511719 218.800781 58.527344 223.238281 60.859375 227.539062 C 64.707031 234.578125 69.511719 241.269531 74.273438 243.5 Z M 78.074219 242.003906 C 74.867188 243.246094 68.621094 237.476562 62.738281 226.804688 C 60.746094 223.195312 58.777344 219.03125 56.992188 214.410156 C 55.480469 210.523438 54.292969 206.796875 53.398438 203.324219 C 50.058594 190.445312 50.675781 181.0625 54.039062 179.75 L 56.441406 178.808594 C 56.582031 178.761719 60.585938 177.199219 60.769531 177.128906 C 58.320312 183.0625 60.402344 193.710938 62.050781 199.945312 C 63.125 203.992188 64.410156 207.832031 65.644531 211.027344 C 67.085938 214.730469 69.03125 219.144531 71.367188 223.421875 C 74.320312 228.851562 77.890625 234.046875 81.691406 237.292969 C 82.628906 238.074219 83.679688 238.832031 84.78125 239.359375 C 82.214844 240.394531 80.429688 241.085938 78.074219 242.003906 Z M 90.617188 237.222656 C 87.023438 238.625 85.304688 238.464844 80.933594 233.796875 C 78.484375 231.175781 75.808594 227.425781 73.222656 222.710938 C 71.230469 219.101562 69.261719 214.9375 67.476562 210.316406 C 66.21875 207.050781 64.933594 203.210938 63.882812 199.207031 C 62.464844 193.78125 61.136719 186.742188 61.820312 181.15625 C 62.324219 176.96875 63.171875 176.09375 66.445312 174.832031 C 67.660156 174.347656 69.238281 173.820312 71.230469 173.035156 C 69.96875 176.070312 69.925781 180.464844 70.40625 184.878906 C 70.839844 188.789062 71.6875 192.722656 72.511719 195.851562 C 72.648438 196.402344 72.785156 196.90625 72.921875 197.414062 C 73.792969 200.519531 74.867188 203.714844 76.105469 206.933594 C 77.339844 210.152344 78.714844 213.234375 80.15625 216.132812 C 80.636719 217.097656 81.210938 218.203125 81.851562 219.351562 C 85.125 225.308594 90.203125 232.921875 95.285156 235.289062 C 93.363281 236.050781 91.875 236.738281 90.617188 237.222656 Z M 101.238281 233.058594 C 97.53125 234.507812 95.789062 234.394531 91.417969 229.703125 C 88.96875 227.082031 86.289062 223.332031 83.703125 218.617188 C 81.710938 215.007812 79.746094 210.84375 77.960938 206.222656 C 76.449219 202.335938 75.257812 198.609375 74.367188 195.136719 C 73.3125 191.089844 72.648438 187.363281 72.351562 184.144531 C 71.6875 177.152344 72.695312 172.484375 75.027344 171.566406 C 75.691406 171.3125 77.296875 170.691406 77.433594 170.621094 C 79.699219 169.746094 79.332031 169.886719 81.757812 168.941406 C 80.5 171.980469 80.453125 176.347656 80.933594 180.785156 C 81.371094 184.695312 82.214844 188.628906 83.015625 191.757812 C 83.15625 192.308594 83.292969 192.835938 83.429688 193.320312 C 84.300781 196.425781 85.375 199.621094 86.609375 202.839844 C 87.847656 206.0625 89.21875 209.140625 90.664062 212.039062 C 91.144531 213.007812 91.714844 214.109375 92.355469 215.257812 C 95.628906 221.214844 100.734375 228.828125 105.792969 231.195312 C 103.9375 231.933594 102.472656 232.578125 101.238281 233.058594 Z M 112.40625 221.675781 C 112.363281 226 111.445312 228.964844 109.546875 229.726562 C 109.179688 229.863281 108.789062 229.933594 108.378906 229.910156 C 106.960938 229.839844 105.152344 228.828125 102.910156 226.667969 C 96.796875 220.757812 91.53125 210.175781 88.441406 202.175781 C 83.109375 188.375 80.085938 169.609375 85.488281 167.515625 C 89.496094 165.953125 98.261719 175.40625 105.175781 191.617188 C 104.832031 191.757812 104.488281 191.917969 104.121094 192.054688 C 99.382812 180.925781 91.851562 170.757812 87.617188 172.414062 C 83.15625 174.164062 84.503906 188.398438 90.617188 204.242188 C 91.1875 205.714844 91.761719 207.140625 92.378906 208.519531 C 94.964844 214.0625 98.949219 221.261719 103.664062 225.839844 C 106.042969 228.09375 107.988281 229.105469 109.132812 228.644531 C 110.507812 228.117188 111.742188 224.988281 111.101562 217.789062 C 110.621094 212.292969 109.089844 205.667969 106.867188 199.160156 C 107.210938 199.023438 107.578125 198.863281 107.921875 198.722656 C 110.875 207.324219 112.453125 215.765625 112.40625 221.675781 Z M 100.847656 205.324219 C 100.871094 204.265625 100.664062 203.070312 100.4375 202.058594 C 100.78125 201.898438 101.144531 201.738281 101.488281 201.578125 C 102.335938 205.164062 101.878906 207.003906 101.535156 207.140625 C 101.304688 207.234375 100.4375 206.75 99.269531 205.210938 C 93.132812 197.160156 92.449219 181.777344 98.789062 194.378906 C 98.445312 194.539062 98.101562 194.699219 97.757812 194.859375 C 96.820312 193 95.996094 191.847656 95.46875 191.25 C 95.332031 195.207031 98.148438 202.425781 100.847656 205.324219 Z M 92.402344 190.675781 C 91.808594 196.929688 97.964844 210.660156 102.265625 208.980469 C 104.304688 208.175781 104.304688 204.613281 103.34375 200.726562 C 103.6875 200.5625 104.054688 200.425781 104.394531 200.265625 C 106.867188 210.039062 102.128906 211.742188 98.835938 209.234375 C 93.753906 205.371094 87.800781 188.925781 93.636719 186.652344 C 95.699219 185.847656 98.765625 187.25 101.695312 193.066406 C 101.351562 193.226562 101.007812 193.367188 100.640625 193.527344 C 96.84375 186.054688 92.8125 186.261719 92.402344 190.675781 Z M 226.648438 186.28125 C 212.59375 183.179688 198.152344 181.613281 183.753906 181.613281 C 169.355469 181.613281 154.914062 183.179688 140.859375 186.28125 C 126.894531 189.363281 113.1875 193.988281 100.390625 199.875 C 99.589844 199.574219 98.742188 197.253906 98.835938 196.539062 C 152.121094 172 213.921875 171.335938 268.648438 196.539062 L 268.535156 196.769531 C 268.488281 197.644531 267.847656 199.253906 267.140625 199.78125 L 267.09375 199.875 C 267.070312 199.875 267.046875 199.851562 267.023438 199.851562 C 267 199.875 266.980469 199.875 266.980469 199.875 L 267 199.828125 C 254.503906 194.101562 240.90625 189.433594 226.648438 186.28125 Z M 265.214844 209.003906 C 269.519531 210.683594 275.675781 196.929688 275.082031 190.699219 C 274.921875 189.113281 274.328125 188.078125 273.433594 187.730469 C 271.832031 187.109375 269.269531 188.742188 266.839844 193.550781 C 266.5 193.390625 266.15625 193.25 265.789062 193.089844 C 268.71875 187.273438 271.785156 185.867188 273.84375 186.675781 C 275.171875 187.203125 276.019531 188.582031 276.226562 190.582031 C 276.84375 197.046875 270.527344 212.292969 264.828125 210.0625 C 261.988281 208.957031 261.988281 204.65625 263.109375 200.265625 C 263.453125 200.425781 263.820312 200.5625 264.164062 200.726562 C 263.179688 204.636719 263.179688 208.199219 265.214844 209.003906 Z M 266.636719 205.324219 C 269.0625 202.726562 271.601562 196.609375 271.96875 192.46875 C 272.015625 191.917969 272.015625 191.527344 272.015625 191.226562 C 271.488281 191.824219 270.664062 192.976562 269.726562 194.839844 C 269.382812 194.675781 269.039062 194.515625 268.695312 194.355469 C 270.183594 191.433594 271.785156 189.320312 272.609375 189.640625 C 273.042969 189.824219 273.273438 190.699219 273.113281 192.539062 C 272.632812 197.941406 269.152344 205.003906 266.703125 206.773438 C 266.269531 207.09375 266.015625 207.117188 265.949219 207.09375 C 265.835938 207.050781 265.398438 206.429688 265.535156 204.429688 C 265.605469 203.53125 265.765625 202.542969 265.996094 201.53125 C 266.335938 201.691406 266.703125 201.851562 267.046875 202.011719 C 266.820312 203.070312 266.613281 204.265625 266.636719 205.324219 Z M 257.9375 229.726562 C 256.039062 228.988281 255.121094 226 255.078125 221.675781 C 255.03125 215.765625 256.609375 207.324219 259.5625 198.746094 C 259.90625 198.886719 260.273438 199.046875 260.617188 199.183594 C 258.394531 205.691406 256.882812 212.316406 256.382812 217.8125 C 255.738281 224.988281 256.976562 228.117188 258.347656 228.667969 C 259.515625 229.128906 261.441406 228.117188 263.796875 225.839844 C 268.535156 221.261719 272.496094 214.039062 275.082031 208.519531 C 275.675781 207.140625 276.273438 205.714844 276.84375 204.242188 C 282.957031 188.398438 284.304688 174.164062 279.84375 172.414062 C 276.523438 171.128906 270.914062 177.128906 265.742188 186.835938 C 264.917969 188.515625 264.117188 190.261719 263.339844 192.054688 C 262.996094 191.917969 262.652344 191.757812 262.285156 191.617188 C 269.199219 175.40625 277.941406 165.953125 281.972656 167.515625 C 287.375 169.632812 284.351562 188.398438 279.019531 202.175781 C 275.929688 210.175781 270.664062 220.757812 264.550781 226.667969 C 262.308594 228.828125 260.5 229.839844 259.082031 229.910156 C 258.691406 229.910156 258.304688 229.863281 257.9375 229.726562 Z M 266.246094 233.058594 C 265.011719 232.578125 263.566406 231.933594 261.738281 231.21875 C 266.773438 228.851562 271.878906 221.214844 275.171875 215.28125 C 275.8125 214.132812 276.386719 213.050781 276.867188 212.0625 C 278.308594 209.164062 279.660156 206.082031 280.917969 202.863281 C 282.15625 199.644531 283.230469 196.449219 284.101562 193.34375 C 284.238281 192.859375 284.375 192.332031 284.511719 191.78125 C 285.335938 188.652344 286.183594 184.71875 286.59375 180.808594 C 287.074219 176.371094 287.03125 171.980469 285.769531 168.964844 C 288.175781 169.910156 287.832031 169.769531 290.097656 170.644531 C 290.234375 170.691406 291.835938 171.3125 292.5 171.585938 C 294.8125 172.484375 295.84375 177.175781 295.179688 184.167969 C 294.878906 187.386719 294.21875 191.113281 293.164062 195.160156 C 292.269531 198.632812 291.082031 202.359375 289.570312 206.246094 C 287.785156 210.890625 285.816406 215.03125 283.824219 218.640625 C 281.214844 223.355469 278.5625 227.101562 276.113281 229.726562 C 271.695312 234.394531 269.929688 234.507812 266.246094 233.058594 Z M 276.867188 237.222656 C 275.609375 236.738281 274.121094 236.050781 272.199219 235.3125 C 277.257812 232.945312 282.335938 225.332031 285.632812 219.375 C 286.273438 218.226562 286.824219 217.144531 287.328125 216.15625 C 288.769531 213.257812 290.121094 210.175781 291.378906 206.957031 C 292.613281 203.738281 293.691406 200.542969 294.558594 197.4375 C 294.699219 196.953125 294.835938 196.425781 294.972656 195.871094 C 295.796875 192.746094 296.644531 188.8125 297.078125 184.902344 C 297.558594 180.464844 297.511719 176.09375 296.253906 173.058594 C 298.269531 173.839844 299.824219 174.371094 301.039062 174.851562 C 304.3125 176.117188 305.15625 176.992188 305.660156 181.175781 C 305.914062 183.316406 305.890625 185.730469 305.640625 188.261719 C 305.296875 191.800781 304.539062 195.574219 303.578125 199.253906 C 302.527344 203.230469 301.242188 207.09375 299.984375 210.359375 C 298.199219 215.007812 296.230469 219.144531 294.238281 222.757812 C 291.628906 227.472656 288.976562 231.21875 286.527344 233.839844 C 282.199219 238.464844 280.460938 238.625 276.867188 237.222656 Z M 289.410156 242.003906 C 287.050781 241.085938 285.265625 240.394531 282.703125 239.382812 C 283.824219 238.855469 284.878906 238.097656 285.792969 237.3125 C 289.617188 234.070312 293.164062 228.875 296.117188 223.445312 C 298.453125 219.167969 300.421875 214.753906 301.839844 211.050781 C 303.074219 207.855469 304.378906 203.992188 305.433594 199.964844 C 306.394531 196.355469 307.171875 192.585938 307.5625 189.019531 C 307.882812 186.074219 307.925781 183.269531 307.605469 180.785156 C 307.445312 179.566406 307.171875 178.304688 306.714844 177.152344 L 309.644531 178.304688 C 309.894531 178.394531 310.902344 178.785156 311.039062 178.832031 L 313.445312 179.773438 C 315.753906 180.671875 316.785156 185.363281 316.121094 192.355469 C 315.824219 195.574219 315.160156 199.277344 314.109375 203.347656 C 313.214844 206.820312 312.023438 210.546875 310.515625 214.433594 C 308.730469 219.078125 306.761719 223.214844 304.769531 226.828125 C 298.863281 237.476562 292.636719 243.269531 289.410156 242.003906 Z M 318.023438 225.515625 C 317.882812 225.839844 317.722656 226.136719 317.585938 226.4375 C 317.449219 226.734375 317.289062 227.035156 317.152344 227.332031 C 316.535156 228.574219 315.914062 229.769531 315.273438 230.921875 C 309.371094 241.570312 303.144531 247.363281 299.9375 246.121094 L 293.234375 243.5 C 297.992188 241.269531 302.777344 234.601562 306.644531 227.539062 C 309.003906 223.238281 310.996094 218.800781 312.390625 215.144531 C 313.558594 212.109375 314.863281 208.199219 315.960938 204.035156 C 316.921875 200.449219 317.703125 196.65625 318.113281 193.089844 C 318.640625 188.492188 318.523438 184.234375 317.265625 181.222656 L 323.972656 183.84375 C 326.285156 184.742188 327.316406 189.433594 326.652344 196.425781 C 326.351562 199.644531 325.691406 203.347656 324.636719 207.417969 C 324.476562 208.0625 324.292969 208.726562 324.109375 209.371094 C 323.285156 212.246094 322.277344 215.328125 321.042969 218.503906 C 320.058594 220.984375 319.050781 223.308594 318.023438 225.515625 Z M 319.667969 231.726562 C 319.601562 231.75 319.394531 231.773438 319.121094 231.65625 C 319.050781 231.632812 318.984375 231.609375 318.914062 231.566406 C 318.546875 231.359375 318.410156 231.105469 318.386719 231.011719 L 319.851562 228.390625 L 321.203125 228.921875 Z M 324.292969 228 C 324.066406 227.910156 320.195312 226.414062 319.851562 226.277344 C 322.050781 221.605469 323.882812 216.800781 325.347656 212.015625 L 326.972656 212.636719 L 326.605469 213.304688 C 325.667969 214.984375 328.664062 216.960938 330.0625 215.742188 C 329.742188 220.964844 325.78125 227.953125 324.292969 228 Z M 332.535156 226.667969 L 329.078125 225.332031 C 330.085938 223.445312 331 221.148438 331.527344 218.984375 L 334.984375 220.320312 C 335.347656 221.652344 333.746094 225.90625 332.535156 226.667969 Z M 332.535156 226.667969 " fill-opacity="1" fill-rule="nonzero"/></g><path fill="#2b2b2b" d="M 266.359375 199.183594 C 266.636719 198.5625 266.933594 197.917969 267.207031 197.296875 C 215.453125 173.773438 154.523438 172.597656 100.140625 197.34375 C 100.414062 197.964844 100.710938 198.609375 100.984375 199.230469 C 152.328125 175.863281 212.617188 174.761719 266.359375 199.183594 Z M 266.359375 199.183594 " fill-opacity="1" fill-rule="nonzero"/><g clip-path="url(#243b970899)"><g clip-path="url(#33b3b86aba)"><path stroke-linecap="butt" transform="matrix(0.749566, 0, 0, 0.750451, 162.988191, 196.521666)" fill="none" stroke-linejoin="miter" d="M 12.992009 0.00236019 L 41.029058 0.00236019 C 48.205083 0.00236019 54.020947 5.816573 54.020947 12.994549 C 54.020947 20.16732 48.205083 25.986738 41.029058 25.986738 L 12.992009 25.986738 C 5.815984 25.986738 0.000119873 20.16732 0.000119873 12.994549 C 0.000119873 5.816573 5.815984 0.00236019 12.992009 0.00236019 Z M 12.992009 0.00236019 " stroke="#004aad" stroke-width="3" stroke-opacity="1" stroke-miterlimit="4"/></g></g><g fill="#004aad" fill-opacity="1"><g transform="translate(170.787006, 207.021666)"><g><path d="M 0.210938 0 L 5.828125 0 L 5.828125 -1.125 L 2.070312 -1.125 C 2.070312 -1.53125 2.34375 -1.726562 3.058594 -1.832031 L 3.941406 -1.953125 C 5.234375 -2.113281 5.773438 -2.539062 5.773438 -3.414062 C 5.773438 -4.554688 4.746094 -5.136719 3.324219 -5.136719 C 2.261719 -5.136719 1.050781 -4.820312 0.320312 -4.28125 L 0.917969 -3.175781 C 1.527344 -3.597656 2.429688 -3.890625 3.085938 -3.890625 C 3.625 -3.890625 3.980469 -3.695312 3.980469 -3.378906 C 3.980469 -3.128906 3.757812 -3 3.226562 -2.917969 L 2.457031 -2.804688 C 0.859375 -2.589844 0.210938 -2 0.21875 -0.652344 Z M 0.210938 0 "/></g></g></g><g fill="#004aad" fill-opacity="1"><g transform="translate(176.733637, 207.021666)"><g><path d="M 3.472656 0.117188 C 5.351562 0.117188 6.695312 -0.953125 6.695312 -2.503906 C 6.695312 -4.058594 5.351562 -5.136719 3.472656 -5.136719 C 1.589844 -5.136719 0.246094 -4.058594 0.246094 -2.503906 C 0.246094 -0.953125 1.589844 0.117188 3.472656 0.117188 Z M 3.472656 -1.160156 C 2.660156 -1.160156 2.097656 -1.695312 2.097656 -2.503906 C 2.097656 -3.316406 2.660156 -3.847656 3.472656 -3.847656 C 4.28125 -3.847656 4.847656 -3.316406 4.847656 -2.503906 C 4.847656 -1.695312 4.28125 -1.160156 3.472656 -1.160156 Z M 3.472656 -1.160156 "/></g></g></g><g fill="#004aad" fill-opacity="1"><g transform="translate(183.582761, 207.021666)"><g><path d="M 0.210938 0 L 5.828125 0 L 5.828125 -1.125 L 2.070312 -1.125 C 2.070312 -1.53125 2.34375 -1.726562 3.058594 -1.832031 L 3.941406 -1.953125 C 5.234375 -2.113281 5.773438 -2.539062 5.773438 -3.414062 C 5.773438 -4.554688 4.746094 -5.136719 3.324219 -5.136719 C 2.261719 -5.136719 1.050781 -4.820312 0.320312 -4.28125 L 0.917969 -3.175781 C 1.527344 -3.597656 2.429688 -3.890625 3.085938 -3.890625 C 3.625 -3.890625 3.980469 -3.695312 3.980469 -3.378906 C 3.980469 -3.128906 3.757812 -3 3.226562 -2.917969 L 2.457031 -2.804688 C 0.859375 -2.589844 0.210938 -2 0.21875 -0.652344 Z M 0.210938 0 "/></g></g></g><g fill="#004aad" fill-opacity="1"><g transform="translate(189.529393, 207.021666)"><g><path d="M 3.183594 0.117188 C 4.757812 0.117188 5.933594 -0.496094 5.941406 -1.425781 C 5.941406 -1.945312 5.570312 -2.386719 4.914062 -2.589844 L 4.914062 -2.601562 C 5.410156 -2.804688 5.695312 -3.21875 5.695312 -3.667969 C 5.695312 -4.546875 4.660156 -5.121094 3.191406 -5.121094 C 1.679688 -5.121094 0.46875 -4.511719 0.292969 -3.574219 L 2.058594 -3.296875 C 2.105469 -3.730469 2.546875 -4.039062 3.121094 -4.039062 C 3.605469 -4.039062 3.945312 -3.8125 3.945312 -3.5 C 3.945312 -3.191406 3.660156 -2.960938 3.183594 -2.953125 L 2.539062 -2.9375 L 2.539062 -2.253906 L 3.246094 -2.238281 C 3.722656 -2.230469 4.085938 -2.015625 4.085938 -1.652344 C 4.085938 -1.28125 3.679688 -1.015625 3.128906 -1.015625 C 2.464844 -1.015625 1.960938 -1.398438 1.882812 -1.9375 L 0.105469 -1.558594 C 0.320312 -0.554688 1.484375 0.117188 3.183594 0.117188 Z M 3.183594 0.117188 "/></g></g></g><g fill="#2b2b2b" fill-opacity="1"><g transform="translate(83.495833, 187.684056)"><g><path d="M 36.96875 -28.015625 C 36.894531 -29.871094 36.894531 -31.722656 36.96875 -33.652344 C 37.28125 -37.28125 38.050781 -41.0625 37.589844 -44.6875 C 37.355469 -46.773438 36.042969 -48.472656 33.804688 -48.472656 C 31.800781 -48.472656 30.023438 -46.773438 30.023438 -44.6875 C 30.101562 -43.375 30.101562 -42.066406 30.101562 -40.753906 L 29.714844 -41.136719 C 28.171875 -42.527344 26.472656 -43.6875 24.777344 -44.765625 C 21.148438 -47.160156 17.367188 -48.855469 13.199219 -50.089844 C 12.734375 -50.246094 12.347656 -50.246094 12.039062 -50.167969 C 10.417969 -50.710938 8.722656 -51.171875 7.023438 -51.328125 C 4.398438 -51.558594 2.160156 -49.9375 1.542969 -47.390625 C 0.925781 -44.84375 2.316406 -42.605469 3.703125 -40.675781 C 6.5625 -36.96875 9.878906 -33.730469 13.507812 -30.796875 L 14.664062 -29.871094 C 15.746094 -28.789062 16.824219 -27.707031 17.828125 -26.550781 C 20.453125 -23.847656 22.921875 -21.070312 25.316406 -18.214844 C 26.085938 -17.289062 26.859375 -16.363281 27.554688 -15.4375 C 27.707031 -14.972656 27.941406 -14.585938 28.09375 -14.203125 C 28.402344 -13.585938 29.097656 -12.117188 28.710938 -11.269531 C 28.710938 -11.039062 28.710938 -10.804688 28.480469 -10.574219 C 27.863281 -9.648438 26.320312 -9.492188 25.316406 -9.417969 C 23.617188 -9.261719 21.996094 -9.261719 20.375 -9.417969 C 19.449219 -9.492188 18.523438 -9.648438 17.597656 -9.957031 C 16.671875 -10.652344 15.824219 -11.5 15.050781 -12.273438 C 13.660156 -13.738281 12.734375 -15.667969 12.039062 -17.519531 C 10.265625 -22.613281 10.035156 -28.09375 8.414062 -33.1875 C 7.796875 -35.042969 6.25 -35.734375 4.398438 -35.503906 C 2.855469 -35.273438 1.699219 -33.804688 1.390625 -32.417969 C 0.925781 -30.179688 1.390625 -27.785156 1.699219 -25.625 C 2.007812 -23.15625 2.316406 -20.683594 2.933594 -18.292969 C 4.089844 -14.046875 4.941406 -9.726562 5.402344 -5.402344 C 5.558594 -4.632812 5.789062 -3.9375 6.25 -3.394531 C 6.484375 -2.007812 7.253906 -0.695312 8.105469 0.15625 C 8.875 0.925781 10.109375 0.925781 10.882812 0.15625 C 11.886719 -0.695312 12.425781 -1.929688 12.734375 -3.242188 C 14.203125 -2.316406 15.824219 -1.621094 17.519531 -1.234375 C 19.992188 -0.539062 22.921875 -0.230469 25.546875 -0.617188 L 25.777344 -0.617188 C 30.640625 -0.847656 35.890625 -4.476562 36.042969 -9.492188 C 36.351562 -11.5 35.890625 -13.585938 35.042969 -15.515625 C 34.578125 -17.597656 33.496094 -19.527344 32.109375 -21.300781 C 30.101562 -23.847656 27.785156 -26.242188 25.546875 -28.636719 C 23.230469 -31.183594 20.761719 -33.652344 18.292969 -36.042969 L 15.128906 -39.054688 C 17.132812 -38.589844 19.21875 -37.898438 21.148438 -37.046875 C 24.851562 -35.351562 28.25 -32.957031 30.488281 -29.636719 C 30.5625 -29.636719 30.5625 -29.5625 30.640625 -29.5625 C 31.105469 -25.933594 32.417969 -20.839844 36.199219 -21.765625 C 37.28125 -22.074219 37.898438 -23.230469 37.589844 -24.234375 C 37.355469 -25.546875 37.046875 -26.707031 36.96875 -28.015625 Z M 36.96875 -28.015625 "/></g></g></g><g fill="#2b2b2b" fill-opacity="1"><g transform="translate(115.832958, 187.684056)"><g><path d="M 35.042969 -26.242188 C 36.199219 -27.324219 36.816406 -28.867188 36.507812 -31.027344 C 36.351562 -31.800781 36.042969 -32.570312 35.582031 -33.34375 C 35.660156 -33.960938 35.425781 -34.578125 34.808594 -35.117188 C 30.410156 -39.054688 25.855469 -42.683594 20.992188 -45.925781 C 18.601562 -47.46875 16.207031 -49.011719 13.660156 -50.324219 C 11.191406 -51.558594 7.871094 -52.5625 5.324219 -50.785156 C 4.863281 -50.402344 4.476562 -49.859375 4.554688 -49.164062 C 3.394531 -48.78125 2.46875 -47.542969 2.933594 -46.234375 C 4.089844 -42.914062 5.09375 -39.519531 6.019531 -36.121094 L 5.558594 -36.351562 C 4.167969 -36.894531 2.394531 -35.96875 1.699219 -34.808594 C 0.847656 -33.34375 1.234375 -30.949219 2.933594 -30.179688 C 4.632812 -29.40625 6.328125 -28.636719 8.105469 -27.941406 C 8.179688 -27.476562 8.335938 -27.089844 8.414062 -26.628906 C 6.097656 -27.476562 3.78125 -28.402344 1.542969 -29.484375 C 1.390625 -29.5625 1.3125 -29.40625 1.390625 -29.328125 C 3.703125 -28.09375 6.097656 -27.015625 8.488281 -26.085938 C 8.953125 -22.921875 9.417969 -19.683594 9.957031 -16.515625 C 10.34375 -13.816406 10.804688 -11.191406 11.191406 -8.566406 L 11.886719 -4.554688 C 12.039062 -3.472656 12.039062 -2.082031 12.65625 -1.15625 C 12.734375 -1.082031 12.734375 -1.082031 12.734375 -1.15625 C 13.042969 -2.082031 12.734375 -3.242188 12.65625 -4.246094 C 12.425781 -5.558594 12.273438 -6.871094 12.117188 -8.257812 C 11.964844 -9.03125 11.886719 -9.800781 11.808594 -10.652344 C 12.039062 -9.261719 12.347656 -7.949219 12.734375 -6.714844 C 12.8125 -5.710938 12.964844 -4.707031 13.121094 -3.78125 C 13.277344 -2.394531 13.277344 -0.925781 14.125 0.15625 C 15.050781 1.3125 16.671875 0.464844 17.519531 -0.230469 C 18.601562 -1.234375 19.449219 -2.46875 19.835938 -3.78125 C 20.375 -5.558594 20.375 -7.488281 20.222656 -9.339844 C 19.835938 -13.121094 19.0625 -16.980469 18.371094 -20.761719 C 18.214844 -21.609375 17.984375 -22.539062 17.828125 -23.464844 C 18.523438 -23.308594 19.21875 -23.230469 19.914062 -23.078125 C 24.699219 -22.304688 32.261719 -21.226562 35.042969 -26.242188 Z M 25.777344 -34.5 C 27.554688 -33.421875 29.5625 -32.339844 30.640625 -30.71875 C 30.796875 -30.5625 30.875 -30.410156 30.949219 -30.253906 L 30.332031 -30.101562 C 29.871094 -30.023438 29.328125 -29.945312 28.789062 -29.945312 C 26.164062 -29.714844 23.539062 -30.023438 20.992188 -30.5625 C 19.296875 -30.949219 17.675781 -31.414062 16.054688 -31.953125 C 15.4375 -34.964844 14.664062 -37.898438 13.894531 -40.828125 C 15.667969 -40.058594 17.367188 -39.207031 19.0625 -38.359375 C 21.300781 -37.125 23.539062 -35.8125 25.777344 -34.5 Z M 21.765625 -24.160156 C 23.695312 -23.847656 26.398438 -23.695312 29.019531 -24.003906 C 29.019531 -23.925781 30.640625 -24.082031 30.640625 -24.003906 L 27.707031 -23.539062 C 24.699219 -23.230469 21.535156 -23.695312 18.523438 -24.160156 C 18.214844 -24.160156 17.984375 -24.234375 17.675781 -24.3125 C 17.597656 -24.46875 17.597656 -24.699219 17.519531 -24.929688 C 18.988281 -24.621094 20.375 -24.3125 21.765625 -24.160156 Z M 17.90625 -10.574219 L 17.753906 -12.117188 C 17.828125 -12.117188 17.675781 -13.042969 17.753906 -13.121094 L 18.214844 -10.726562 C 18.753906 -8.179688 19.0625 -5.558594 17.984375 -3.164062 C 17.753906 -2.933594 17.519531 -2.777344 17.210938 -2.625 L 17.058594 -2.855469 C 18.292969 -5.171875 18.136719 -8.027344 17.90625 -10.574219 Z M 17.90625 -10.574219 "/></g></g></g><g fill="#2b2b2b" fill-opacity="1"><g transform="translate(145.082929, 187.684056)"><g><path d="M 29.175781 -33.113281 C 28.789062 -35.425781 28.324219 -37.820312 27.632812 -40.136719 C 26.859375 -42.375 25.777344 -44.535156 24.699219 -46.617188 C 24.3125 -47.3125 23.539062 -47.46875 22.921875 -47.234375 C 22.382812 -48.238281 21.609375 -49.550781 20.609375 -50.167969 C 19.683594 -50.710938 18.371094 -50.710938 17.289062 -50.476562 C 16.285156 -50.554688 15.28125 -50.246094 14.277344 -49.859375 C 11.808594 -49.320312 9.957031 -46.925781 8.644531 -44.070312 C 8.488281 -44.070312 8.257812 -44.148438 8.027344 -44.070312 C 8.335938 -44.921875 8.644531 -45.769531 9.03125 -46.617188 C 9.339844 -47.390625 9.800781 -48.164062 10.265625 -48.933594 C 10.34375 -49.089844 10.1875 -49.164062 10.109375 -49.011719 C 8.800781 -47.3125 7.796875 -45.460938 7.023438 -43.453125 C 6.945312 -43.375 6.945312 -43.300781 6.871094 -43.300781 C 1.699219 -34.65625 0.308594 -24.46875 1.851562 -14.585938 C 2.625 -10.035156 4.167969 -5.402344 7.796875 -2.316406 C 9.878906 -0.617188 12.734375 0.308594 15.28125 -0.15625 C 16.132812 -0.078125 16.980469 -0.078125 17.828125 -0.15625 C 19.992188 -0.464844 21.765625 -1.464844 23.230469 -2.933594 C 24.3125 -3.859375 25.238281 -4.941406 26.085938 -6.097656 C 28.636719 -9.726562 29.328125 -14.433594 29.714844 -18.679688 C 30.253906 -23.539062 29.945312 -28.324219 29.175781 -33.113281 Z M 19.527344 -10.652344 C 19.296875 -9.726562 18.910156 -8.875 18.445312 -8.027344 C 17.984375 -7.179688 17.289062 -6.484375 16.363281 -6.175781 C 13.042969 -5.171875 10.34375 -8.335938 9.109375 -10.882812 C 9.878906 -10.417969 10.882812 -10.1875 11.808594 -10.417969 C 12.117188 -10.496094 12.425781 -10.652344 12.65625 -10.804688 C 11.5 -15.824219 10.882812 -21.070312 11.113281 -26.320312 C 11.269531 -28.09375 11.421875 -29.871094 11.730469 -31.644531 C 11.808594 -31.722656 11.808594 -31.800781 11.886719 -31.953125 C 12.503906 -35.117188 13.507812 -38.28125 14.972656 -41.136719 C 15.28125 -41.679688 15.589844 -42.296875 16.054688 -42.605469 C 11.65625 -33.34375 11.5 -21.996094 13.660156 -11.964844 C 14.046875 -12.65625 14.125 -13.429688 13.96875 -14.277344 C 13.042969 -19.992188 12.964844 -25.933594 13.660156 -31.644531 C 14.046875 -34.578125 14.742188 -37.433594 15.589844 -40.210938 C 15.824219 -40.984375 16.132812 -41.988281 16.59375 -42.835938 L 16.980469 -42.835938 C 17.058594 -42.835938 17.210938 -42.757812 17.289062 -42.683594 C 17.597656 -42.140625 17.828125 -41.523438 18.0625 -40.984375 C 18.601562 -39.671875 19.0625 -38.28125 19.527344 -36.894531 C 19.757812 -35.8125 19.914062 -34.65625 20.144531 -33.496094 C 20.761719 -29.714844 20.992188 -25.777344 21.300781 -21.921875 C 21.300781 -18.136719 20.839844 -14.277344 19.527344 -10.652344 Z M 19.527344 -10.652344 "/></g></g></g><g fill="#2b2b2b" fill-opacity="1"><g transform="translate(170.473972, 187.684056)"><g><path d="M 44.070312 -45.460938 C 45.925781 -46.234375 46 -49.164062 44.226562 -50.167969 C 44.070312 -50.324219 43.917969 -50.402344 43.761719 -50.476562 C 43.917969 -50.554688 44.148438 -50.554688 44.304688 -50.554688 C 45.074219 -50.710938 44.84375 -52.019531 44.148438 -51.945312 C 42.992188 -51.789062 41.832031 -51.710938 40.675781 -51.558594 C 40.210938 -51.636719 39.75 -51.558594 39.363281 -51.558594 C 38.589844 -51.480469 37.820312 -51.402344 36.96875 -51.25 C 26.242188 -50.324219 15.4375 -50.089844 4.632812 -50.710938 C 4.398438 -50.785156 4.320312 -50.324219 4.554688 -50.324219 C 8.722656 -49.628906 12.890625 -49.164062 17.058594 -48.933594 C 17.058594 -48.855469 16.980469 -48.78125 16.980469 -48.703125 C 12.734375 -48.703125 8.566406 -49.011719 4.320312 -49.398438 C 2.625 -49.550781 1.082031 -48.085938 0.617188 -46.542969 C 0.15625 -44.6875 1.082031 -42.835938 2.625 -41.988281 C 3.085938 -40.753906 4.089844 -39.671875 5.09375 -38.976562 C 6.484375 -38.128906 8.179688 -37.898438 9.800781 -37.664062 C 11.808594 -37.511719 13.894531 -37.433594 15.976562 -37.433594 C 16.980469 -37.433594 17.984375 -37.433594 18.988281 -37.433594 L 18.988281 -34.964844 L 18.832031 -31.566406 C 18.679688 -27.554688 18.445312 -23.539062 18.214844 -19.605469 C 18.0625 -15.667969 17.984375 -11.65625 18.214844 -7.71875 C 18.371094 -4.707031 19.0625 -1.15625 22.304688 -0.15625 C 23.925781 0.308594 25.855469 -0.617188 26.398438 -2.316406 C 26.9375 -3.859375 27.015625 -6.019531 27.324219 -7.410156 L 27.324219 -4.476562 C 27.246094 -3.394531 27.246094 -2.316406 27.167969 -1.234375 L 27.167969 -1.082031 C 28.558594 -2.160156 28.867188 -4.011719 29.019531 -5.867188 C 28.945312 -8.566406 28.789062 -11.269531 28.710938 -13.96875 C 28.710938 -18.679688 28.636719 -23.386719 28.636719 -28.09375 C 28.636719 -31.492188 28.710938 -34.886719 28.710938 -38.28125 C 32.648438 -38.824219 36.507812 -39.519531 40.445312 -40.289062 C 40.675781 -40.289062 40.828125 -40.445312 40.984375 -40.597656 C 41.371094 -40.675781 41.832031 -40.828125 42.140625 -41.0625 C 43.375 -41.910156 43.6875 -43.300781 43.761719 -44.6875 C 43.917969 -44.921875 43.996094 -45.152344 44.070312 -45.460938 Z M 9.800781 -39.519531 C 7.949219 -39.59375 5.941406 -40.136719 4.707031 -41.292969 C 7.71875 -40.367188 10.804688 -39.828125 13.894531 -39.519531 C 12.503906 -39.441406 11.113281 -39.441406 9.800781 -39.519531 Z M 9.800781 -39.519531 "/></g></g></g><g fill="#2b2b2b" fill-opacity="1"><g transform="translate(208.213607, 187.684056)"><g><path d="M 44.070312 -45.460938 C 45.925781 -46.234375 46 -49.164062 44.226562 -50.167969 C 44.070312 -50.324219 43.917969 -50.402344 43.761719 -50.476562 C 43.917969 -50.554688 44.148438 -50.554688 44.304688 -50.554688 C 45.074219 -50.710938 44.84375 -52.019531 44.148438 -51.945312 C 42.992188 -51.789062 41.832031 -51.710938 40.675781 -51.558594 C 40.210938 -51.636719 39.75 -51.558594 39.363281 -51.558594 C 38.589844 -51.480469 37.820312 -51.402344 36.96875 -51.25 C 26.242188 -50.324219 15.4375 -50.089844 4.632812 -50.710938 C 4.398438 -50.785156 4.320312 -50.324219 4.554688 -50.324219 C 8.722656 -49.628906 12.890625 -49.164062 17.058594 -48.933594 C 17.058594 -48.855469 16.980469 -48.78125 16.980469 -48.703125 C 12.734375 -48.703125 8.566406 -49.011719 4.320312 -49.398438 C 2.625 -49.550781 1.082031 -48.085938 0.617188 -46.542969 C 0.15625 -44.6875 1.082031 -42.835938 2.625 -41.988281 C 3.085938 -40.753906 4.089844 -39.671875 5.09375 -38.976562 C 6.484375 -38.128906 8.179688 -37.898438 9.800781 -37.664062 C 11.808594 -37.511719 13.894531 -37.433594 15.976562 -37.433594 C 16.980469 -37.433594 17.984375 -37.433594 18.988281 -37.433594 L 18.988281 -34.964844 L 18.832031 -31.566406 C 18.679688 -27.554688 18.445312 -23.539062 18.214844 -19.605469 C 18.0625 -15.667969 17.984375 -11.65625 18.214844 -7.71875 C 18.371094 -4.707031 19.0625 -1.15625 22.304688 -0.15625 C 23.925781 0.308594 25.855469 -0.617188 26.398438 -2.316406 C 26.9375 -3.859375 27.015625 -6.019531 27.324219 -7.410156 L 27.324219 -4.476562 C 27.246094 -3.394531 27.246094 -2.316406 27.167969 -1.234375 L 27.167969 -1.082031 C 28.558594 -2.160156 28.867188 -4.011719 29.019531 -5.867188 C 28.945312 -8.566406 28.789062 -11.269531 28.710938 -13.96875 C 28.710938 -18.679688 28.636719 -23.386719 28.636719 -28.09375 C 28.636719 -31.492188 28.710938 -34.886719 28.710938 -38.28125 C 32.648438 -38.824219 36.507812 -39.519531 40.445312 -40.289062 C 40.675781 -40.289062 40.828125 -40.445312 40.984375 -40.597656 C 41.371094 -40.675781 41.832031 -40.828125 42.140625 -41.0625 C 43.375 -41.910156 43.6875 -43.300781 43.761719 -44.6875 C 43.917969 -44.921875 43.996094 -45.152344 44.070312 -45.460938 Z M 9.800781 -39.519531 C 7.949219 -39.59375 5.941406 -40.136719 4.707031 -41.292969 C 7.71875 -40.367188 10.804688 -39.828125 13.894531 -39.519531 C 12.503906 -39.441406 11.113281 -39.441406 9.800781 -39.519531 Z M 9.800781 -39.519531 "/></g></g></g><g fill="#2b2b2b" fill-opacity="1"><g transform="translate(245.953242, 187.684056)"><g><path d="M 43.996094 -29.40625 C 44.226562 -31.105469 43.761719 -32.492188 42.527344 -33.421875 C 41.523438 -34.191406 40.445312 -35.042969 39.363281 -35.8125 C 39.207031 -36.429688 38.898438 -37.046875 38.28125 -37.511719 C 30.71875 -42.605469 23.078125 -47.851562 14.585938 -50.554688 C 14.511719 -50.554688 14.433594 -50.632812 14.355469 -50.632812 C 13.816406 -50.863281 13.277344 -51.019531 12.734375 -51.25 C 12.582031 -51.402344 12.347656 -51.558594 12.039062 -51.558594 C 9.492188 -52.019531 4.863281 -53.023438 3.394531 -50.167969 C 2.546875 -48.394531 3.394531 -46.234375 4.863281 -44.996094 C 4.398438 -44.304688 3.859375 -43.761719 3.242188 -43.300781 C 3.859375 -40.675781 4.398438 -37.972656 4.941406 -35.351562 C 4.476562 -35.351562 4.011719 -35.351562 3.550781 -35.273438 C 1.234375 -35.273438 0.308594 -31.414062 2.46875 -30.023438 C 3.164062 -29.5625 4.011719 -29.097656 4.785156 -28.789062 L 3.011719 -28.558594 C 3.859375 -28.25 4.707031 -27.941406 5.558594 -27.707031 C 5.867188 -27.632812 6.019531 -27.398438 6.019531 -27.167969 C 6.175781 -27.167969 6.328125 -27.167969 6.484375 -27.167969 L 6.945312 -24.46875 C 7.5625 -20.839844 8.179688 -17.210938 8.800781 -13.585938 L 9.492188 -8.488281 C 9.648438 -6.792969 9.492188 -4.941406 9.878906 -3.320312 C 9.878906 -2.46875 10.652344 -1.929688 11.269531 -2.082031 C 11.347656 -1.621094 11.5 -1.234375 11.730469 -0.847656 C 12.65625 0.230469 14.203125 0.15625 15.203125 -0.695312 C 15.976562 -1.3125 16.515625 -2.082031 16.980469 -3.011719 C 16.980469 -3.394531 16.980469 -3.859375 16.902344 -4.320312 C 17.132812 -8.105469 16.75 -12.039062 16.515625 -15.824219 C 16.363281 -19.371094 16.054688 -22.921875 15.667969 -26.398438 C 17.675781 -26.320312 19.757812 -26.164062 21.765625 -26.085938 C 22.152344 -25.394531 22.613281 -24.621094 23.078125 -23.925781 L 23.078125 -23.847656 C 23.539062 -23.078125 23.925781 -22.304688 24.3125 -21.457031 C 25.777344 -18.601562 27.863281 -13.507812 28.710938 -11.5 C 30.253906 -7.949219 31.800781 -4.320312 33.1875 -0.695312 C 33.496094 -0.539062 33.960938 -0.695312 34.191406 -0.925781 C 34.191406 -0.847656 34.269531 -0.847656 34.347656 -0.847656 C 35.042969 -0.539062 35.734375 -0.539062 36.429688 -0.617188 C 37.742188 -0.078125 39.519531 -0.464844 39.75 -2.160156 C 40.367188 -7.179688 37.664062 -12.039062 35.582031 -16.441406 C 33.960938 -19.757812 32.109375 -22.921875 30.023438 -26.011719 C 33.652344 -25.703125 37.28125 -25.394531 40.90625 -25.160156 C 42.140625 -25.007812 43.609375 -26.320312 43.761719 -27.785156 Z M 12.65625 -41.214844 L 12.425781 -42.449219 C 19.0625 -40.90625 25.238281 -37.589844 31.183594 -33.496094 L 23.695312 -34.421875 C 21.921875 -35.890625 19.371094 -37.972656 17.058594 -36.507812 C 16.671875 -36.199219 16.441406 -35.734375 16.363281 -35.351562 C 15.976562 -35.425781 15.515625 -35.425781 15.128906 -35.503906 C 14.820312 -37.125 14.433594 -38.746094 14.046875 -40.367188 C 13.96875 -41.0625 13.199219 -41.0625 12.8125 -40.675781 C 12.734375 -40.828125 12.734375 -41.0625 12.65625 -41.214844 Z M 18.136719 -6.484375 C 18.445312 -8.335938 19.0625 -9.109375 18.832031 -11.886719 C 18.445312 -16.515625 18.0625 -21.148438 17.289062 -25.625 L 16.671875 -25.625 C 17.597656 -19.296875 17.828125 -12.890625 18.136719 -6.484375 Z M 18.136719 -6.484375 "/></g></g></g></svg>