<svg xmlns="http://www.w3.org/2000/svg" xmlns:xlink="http://www.w3.org/1999/xlink" width="500" zoomAndPan="magnify" viewBox="0 0 375 374.999991" height="500" preserveAspectRatio="xMidYMid meet" version="1.0"><defs><g/><clipPath id="d048d34947"><path d="M 35 174 L 341 174 L 341 257.578125 L 35 257.578125 Z M 35 174 " clip-rule="nonzero"/></clipPath><clipPath id="8718632e1c"><path d="M 167.238281 205.671875 L 207.734375 205.671875 L 207.734375 225.171875 L 167.238281 225.171875 Z M 167.238281 205.671875 " clip-rule="nonzero"/></clipPath><clipPath id="426173c0e4"><path d="M 176.976562 205.671875 L 197.992188 205.671875 C 203.371094 205.671875 207.730469 210.035156 207.730469 215.421875 C 207.730469 220.804688 203.371094 225.171875 197.992188 225.171875 L 176.976562 225.171875 C 171.597656 225.171875 167.238281 220.804688 167.238281 215.421875 C 167.238281 210.035156 171.597656 205.671875 176.976562 205.671875 Z M 176.976562 205.671875 " clip-rule="nonzero"/></clipPath></defs><path fill="#ffffff" d="M 52.726562 192.304688 L 48.195312 194.074219 C 46.664062 194.671875 45.65625 198.605469 46.226562 205.160156 L 52.546875 202.699219 C 52.109375 198.949219 52.042969 195.316406 52.726562 192.304688 Z M 52.726562 192.304688 " fill-opacity="1" fill-rule="nonzero"/><path fill="#ffffff" d="M 73.71875 184.09375 C 73.421875 184.210938 73.144531 184.300781 72.894531 184.394531 C 72.207031 184.644531 71.632812 184.851562 71.109375 185.058594 C 68.203125 186.1875 67.652344 186.691406 67.195312 190.464844 C 66.964844 192.417969 66.964844 194.628906 67.195312 196.972656 L 73.558594 194.488281 C 73.144531 190.878906 73.054688 187.152344 73.71875 184.09375 Z M 73.71875 184.09375 " fill-opacity="1" fill-rule="nonzero"/><path fill="#ffffff" d="M 63.234375 188.210938 C 62.296875 188.578125 62.753906 188.394531 61.082031 189.039062 L 58.679688 189.980469 C 57.375 190.488281 56.230469 193.777344 56.621094 199.917969 C 56.640625 200.285156 56.664062 200.675781 56.710938 201.066406 L 63.050781 198.605469 C 62.664062 195.316406 62.546875 191.429688 63.234375 188.210938 Z M 63.234375 188.210938 " fill-opacity="1" fill-rule="nonzero"/><path fill="#ffffff" d="M 84.222656 180.023438 L 82.074219 180.851562 L 79.667969 181.792969 C 78.457031 182.277344 77.175781 185.175781 77.609375 191.777344 C 77.632812 192.144531 77.65625 192.511719 77.699219 192.878906 L 84.085938 190.394531 C 83.652344 186.808594 83.558594 183.082031 84.222656 180.023438 Z M 84.222656 180.023438 " fill-opacity="1" fill-rule="nonzero"/><path fill="#ffffff" d="M 74.542969 233.03125 L 68.042969 235.5625 C 69.871094 238.828125 71.773438 241.75 73.695312 244.164062 C 77.539062 248.96875 80.585938 250.625 81.890625 250.097656 L 86.445312 248.324219 C 86.03125 248.027344 85.621094 247.703125 85.183594 247.335938 C 81.019531 243.796875 77.355469 238.253906 74.542969 233.03125 Z M 74.542969 233.03125 " fill-opacity="1" fill-rule="nonzero"/><path fill="#ffffff" d="M 85.023438 228.9375 L 78.523438 231.46875 C 80.929688 235.816406 83.492188 239.496094 86.007812 242.1875 C 90.199219 246.671875 91.457031 246.484375 94.457031 245.3125 C 95.003906 245.105469 95.601562 244.851562 96.261719 244.554688 C 96.492188 244.460938 96.722656 244.371094 96.972656 244.253906 C 92.097656 240.828125 87.703125 233.816406 85.023438 228.9375 Z M 85.023438 228.9375 " fill-opacity="1" fill-rule="nonzero"/><path fill="#ffffff" d="M 66.507812 241.335938 C 65.683594 240 64.859375 238.597656 64.058594 237.101562 L 57.535156 239.65625 C 63.507812 250.371094 69.253906 255.042969 71.40625 254.191406 L 75.9375 252.417969 C 72.917969 250.28125 69.757812 246.578125 66.507812 241.335938 Z M 66.507812 241.335938 " fill-opacity="1" fill-rule="nonzero"/><path fill="#ffffff" d="M 95.53125 224.84375 L 89.03125 227.375 C 91.433594 231.722656 93.996094 235.402344 96.515625 238.09375 C 100.679688 242.554688 101.984375 242.371094 105.097656 241.152344 C 105.648438 240.945312 106.242188 240.691406 106.882812 240.414062 C 107.066406 240.347656 107.273438 240.253906 107.480469 240.160156 C 102.558594 236.667969 98.070312 229.445312 95.53125 224.84375 Z M 95.53125 224.84375 " fill-opacity="1" fill-rule="nonzero"/><path fill="#ffffff" d="M 65.203125 209.53125 L 58.679688 212.058594 C 59.59375 215.648438 60.808594 219.371094 62.273438 223.144531 L 68.796875 220.589844 C 68.042969 218.636719 66.53125 214.472656 65.203125 209.53125 Z M 65.203125 209.53125 " fill-opacity="1" fill-rule="nonzero"/><path fill="#ffffff" d="M 76.074219 206.90625 C 75.960938 206.472656 75.824219 205.988281 75.6875 205.457031 L 69.207031 207.988281 C 70.214844 211.921875 71.496094 215.761719 72.777344 219.097656 L 79.300781 216.542969 C 78.066406 213.300781 76.992188 210.058594 76.074219 206.90625 Z M 76.074219 206.90625 " fill-opacity="1" fill-rule="nonzero"/><path fill="#ffffff" d="M 86.582031 202.8125 C 86.46875 202.421875 86.328125 201.917969 86.191406 201.367188 L 79.691406 203.894531 C 80.605469 207.484375 81.820312 211.230469 83.285156 214.980469 L 89.808594 212.425781 C 88.550781 209.207031 87.472656 205.964844 86.582031 202.8125 Z M 86.582031 202.8125 " fill-opacity="1" fill-rule="nonzero"/><path fill="#ffffff" d="M 54.742188 213.601562 L 48.195312 216.152344 C 49.15625 219.902344 50.371094 223.605469 51.789062 227.238281 L 58.3125 224.683594 C 57.925781 223.671875 56.230469 219.210938 54.742188 213.601562 Z M 54.742188 213.601562 " fill-opacity="1" fill-rule="nonzero"/><path fill="#ffffff" d="M 45.175781 232.550781 C 45.722656 233.609375 46.617188 235.125 47.507812 235.90625 C 47.738281 235.816406 50.074219 234.917969 50.347656 234.804688 C 49.796875 233.609375 49.273438 232.390625 48.769531 231.148438 Z M 45.175781 232.550781 " fill-opacity="1" fill-rule="nonzero"/><path fill="#ffffff" d="M 46.183594 224.246094 C 45.632812 225.464844 44.328125 226.316406 43.023438 226.410156 C 43.070312 226.59375 43.09375 226.777344 43.136719 226.960938 L 46.664062 225.582031 C 46.503906 225.144531 46.34375 224.683594 46.183594 224.246094 Z M 46.183594 224.246094 " fill-opacity="1" fill-rule="nonzero"/><path fill="#ffffff" d="M 47.371094 227.558594 L 43.710938 228.984375 C 43.847656 229.398438 43.984375 229.8125 44.144531 230.226562 L 47.828125 228.800781 C 47.667969 228.386719 47.507812 227.972656 47.371094 227.558594 Z M 47.371094 227.558594 " fill-opacity="1" fill-rule="nonzero"/><path fill="#ffffff" d="M 39.726562 230.550781 L 38.035156 231.214844 C 38.125 231.582031 38.261719 231.996094 38.421875 232.457031 L 40.160156 231.789062 C 40.023438 231.355469 39.863281 230.941406 39.726562 230.550781 Z M 39.726562 230.550781 " fill-opacity="1" fill-rule="nonzero"/><path fill="#ffffff" d="M 38.675781 233.007812 C 38.972656 233.675781 39.269531 234.160156 39.5 234.457031 L 41.078125 233.835938 C 40.847656 233.355469 40.621094 232.847656 40.414062 232.320312 Z M 38.675781 233.007812 " fill-opacity="1" fill-rule="nonzero"/><path fill="#ffffff" d="M 39.453125 229.628906 L 37.875 230.25 C 37.894531 230.433594 37.941406 230.6875 37.988281 230.964844 L 39.660156 230.320312 C 39.589844 230.089844 39.5 229.859375 39.453125 229.628906 Z M 39.453125 229.628906 " fill-opacity="1" fill-rule="nonzero"/><path fill="#ffffff" d="M 323.441406 202.675781 L 329.757812 205.136719 C 330.328125 198.582031 329.324219 194.648438 327.789062 194.050781 L 323.257812 192.28125 C 323.941406 195.316406 323.898438 198.949219 323.441406 202.675781 Z M 323.441406 202.675781 " fill-opacity="1" fill-rule="nonzero"/><path fill="#ffffff" d="M 302.425781 194.488281 L 308.789062 196.972656 C 308.996094 194.628906 309.019531 192.417969 308.789062 190.464844 C 308.332031 186.691406 307.785156 186.1875 304.875 185.058594 C 304.351562 184.851562 303.777344 184.644531 303.089844 184.394531 C 302.816406 184.300781 302.542969 184.1875 302.265625 184.09375 C 302.929688 187.152344 302.863281 190.878906 302.425781 194.488281 Z M 302.425781 194.488281 " fill-opacity="1" fill-rule="nonzero"/><path fill="#ffffff" d="M 312.933594 198.582031 L 319.273438 201.042969 C 319.296875 200.652344 319.34375 200.285156 319.367188 199.894531 C 319.753906 193.730469 318.609375 190.464844 317.304688 189.957031 L 314.902344 189.015625 L 313.503906 188.488281 L 312.75 188.1875 C 312.863281 188.695312 312.957031 189.222656 313.023438 189.773438 C 313.367188 192.511719 313.300781 195.523438 312.933594 198.582031 Z M 312.933594 198.582031 " fill-opacity="1" fill-rule="nonzero"/><path fill="#ffffff" d="M 291.921875 190.394531 L 298.308594 192.878906 C 298.332031 192.511719 298.375 192.144531 298.398438 191.777344 C 298.8125 185.175781 297.550781 182.277344 296.339844 181.792969 L 293.933594 180.851562 L 291.785156 180.023438 C 292.425781 183.082031 292.332031 186.808594 291.921875 190.394531 Z M 291.921875 190.394531 " fill-opacity="1" fill-rule="nonzero"/><path fill="#ffffff" d="M 307.945312 235.5625 L 301.441406 233.03125 C 298.605469 238.253906 294.964844 243.796875 290.777344 247.359375 C 290.363281 247.726562 289.929688 248.050781 289.519531 248.347656 L 294.074219 250.121094 C 295.378906 250.625 298.421875 248.992188 302.265625 244.1875 C 304.210938 241.75 306.136719 238.828125 307.945312 235.5625 Z M 307.945312 235.5625 " fill-opacity="1" fill-rule="nonzero"/><path fill="#ffffff" d="M 290.960938 228.9375 C 288.28125 233.816406 283.886719 240.828125 279.011719 244.277344 C 279.261719 244.371094 279.492188 244.484375 279.722656 244.578125 C 280.40625 244.875 280.980469 245.105469 281.53125 245.335938 C 284.527344 246.507812 285.785156 246.691406 289.976562 242.207031 C 292.492188 239.519531 295.058594 235.839844 297.460938 231.492188 Z M 290.960938 228.9375 " fill-opacity="1" fill-rule="nonzero"/><path fill="#ffffff" d="M 309.476562 241.335938 C 306.226562 246.578125 303.066406 250.304688 300.046875 252.441406 L 304.578125 254.214844 C 306.730469 255.042969 312.476562 250.394531 318.449219 239.679688 L 311.925781 237.125 C 311.125 238.574219 310.300781 240 309.476562 241.335938 Z M 309.476562 241.335938 " fill-opacity="1" fill-rule="nonzero"/><path fill="#ffffff" d="M 280.476562 224.84375 C 277.9375 229.46875 273.449219 236.6875 268.527344 240.183594 C 268.734375 240.277344 268.941406 240.347656 269.125 240.4375 C 269.765625 240.714844 270.359375 240.96875 270.910156 241.171875 C 274.023438 242.394531 275.304688 242.578125 279.492188 238.113281 C 282.011719 235.425781 284.574219 231.746094 286.976562 227.398438 Z M 280.476562 224.84375 " fill-opacity="1" fill-rule="nonzero"/><path fill="#ffffff" d="M 317.304688 212.058594 L 310.78125 209.53125 C 309.453125 214.472656 307.945312 218.636719 307.164062 220.613281 L 313.6875 223.167969 C 315.152344 219.394531 316.367188 215.648438 317.304688 212.058594 Z M 317.304688 212.058594 " fill-opacity="1" fill-rule="nonzero"/><path fill="#ffffff" d="M 306.777344 207.964844 L 300.296875 205.4375 C 300.160156 205.964844 300.023438 206.449219 299.910156 206.882812 C 299.015625 210.058594 297.941406 213.300781 296.683594 216.519531 L 303.207031 219.074219 C 304.511719 215.738281 305.769531 211.898438 306.777344 207.964844 Z M 306.777344 207.964844 " fill-opacity="1" fill-rule="nonzero"/><path fill="#ffffff" d="M 296.316406 203.894531 L 289.816406 201.367188 C 289.679688 201.941406 289.539062 202.421875 289.425781 202.8125 C 288.535156 205.988281 287.457031 209.230469 286.199219 212.449219 L 292.722656 215.003906 C 294.164062 211.207031 295.378906 207.460938 296.316406 203.894531 Z M 296.316406 203.894531 " fill-opacity="1" fill-rule="nonzero"/><path fill="#ffffff" d="M 326.964844 219.164062 C 327.054688 218.84375 327.148438 218.519531 327.238281 218.222656 C 327.445312 217.507812 327.628906 216.84375 327.789062 216.152344 L 321.242188 213.601562 C 319.753906 219.210938 318.0625 223.671875 317.671875 224.707031 L 324.195312 227.261719 C 325.109375 224.890625 325.933594 222.5 326.667969 220.152344 C 326.757812 219.808594 326.851562 219.488281 326.964844 219.164062 Z M 326.964844 219.164062 " fill-opacity="1" fill-rule="nonzero"/><path fill="#ffffff" d="M 325.636719 234.78125 C 325.730469 234.804688 328.339844 235.839844 328.476562 235.882812 C 329.367188 235.101562 330.285156 233.585938 330.808594 232.527344 L 327.214844 231.125 C 326.714844 232.367188 326.1875 233.609375 325.636719 234.78125 Z M 325.636719 234.78125 " fill-opacity="1" fill-rule="nonzero"/><path fill="#ffffff" d="M 329.804688 224.246094 C 329.644531 224.707031 329.484375 225.144531 329.324219 225.605469 L 332.847656 226.984375 C 332.894531 226.800781 332.9375 226.617188 332.960938 226.433594 C 331.65625 226.316406 330.351562 225.464844 329.804688 224.246094 Z M 329.804688 224.246094 " fill-opacity="1" fill-rule="nonzero"/><path fill="#ffffff" d="M 328.15625 228.800781 L 331.839844 230.226562 C 332 229.8125 332.136719 229.398438 332.273438 228.984375 L 328.613281 227.558594 C 328.476562 227.972656 328.316406 228.386719 328.15625 228.800781 Z M 328.15625 228.800781 " fill-opacity="1" fill-rule="nonzero"/><path fill="#ffffff" d="M 335.800781 231.769531 L 337.539062 232.433594 C 337.722656 231.976562 337.859375 231.539062 337.929688 231.191406 L 336.234375 230.527344 C 336.121094 230.941406 335.960938 231.355469 335.800781 231.769531 Z M 335.800781 231.769531 " fill-opacity="1" fill-rule="nonzero"/><path fill="#ffffff" d="M 334.90625 233.859375 L 336.488281 234.480469 C 336.714844 234.183594 337.011719 233.699219 337.3125 233.03125 L 335.570312 232.367188 C 335.363281 232.871094 335.136719 233.378906 334.90625 233.859375 Z M 334.90625 233.859375 " fill-opacity="1" fill-rule="nonzero"/><path fill="#ffffff" d="M 336.328125 230.296875 L 337.996094 230.941406 C 338.066406 230.664062 338.089844 230.410156 338.113281 230.226562 L 336.53125 229.605469 C 336.488281 229.859375 336.394531 230.089844 336.328125 230.296875 Z M 336.328125 230.296875 " fill-opacity="1" fill-rule="nonzero"/><g clip-path="url(#d048d34947)"><path fill="#ffffff" d="M 339.988281 227.925781 L 336.144531 226.433594 C 336.417969 224.707031 336.394531 223.191406 335.914062 222.179688 L 336.96875 220.269531 C 337.472656 219.347656 336.738281 218.128906 335.503906 217.648438 C 334.5625 217.28125 333.601562 217.488281 333.238281 218.175781 L 332.183594 220.0625 L 330.167969 219.28125 C 331.726562 213.875 332.6875 208.746094 332.984375 204.308594 C 333.257812 200.007812 332.914062 196.695312 331.933594 194.421875 C 331.246094 192.789062 330.214844 191.683594 328.910156 191.175781 C 324.082031 189.292969 290.730469 176.296875 286.929688 174.828125 C 283.773438 173.609375 279.699219 176 275.097656 181.773438 C 271.414062 186.417969 267.773438 192.808594 264.707031 200.03125 C 254.132812 195.753906 243.210938 192.375 232.089844 189.9375 C 217.621094 186.738281 202.789062 185.128906 187.980469 185.128906 C 173.171875 185.128906 158.339844 186.738281 143.875 189.9375 C 132.773438 192.394531 121.832031 195.777344 111.257812 200.03125 C 108.1875 192.808594 104.550781 186.417969 100.863281 181.773438 C 96.285156 176 92.1875 173.609375 89.03125 174.828125 C 85.230469 176.296875 51.882812 189.316406 47.050781 191.175781 C 39.910156 193.960938 43.640625 211.78125 45.792969 219.28125 L 43.777344 220.0625 L 42.726562 218.175781 C 41.695312 216.3125 37.941406 218.40625 38.996094 220.269531 L 40.046875 222.179688 C 39.566406 223.191406 39.542969 224.707031 39.820312 226.433594 L 35.972656 227.925781 C 33.25 228.984375 36.933594 238.527344 39.660156 237.472656 L 43.503906 235.976562 C 46.296875 240.277344 47.945312 239.105469 49.15625 238.621094 L 50.828125 241.609375 C 51.5625 242.945312 53.964844 242.277344 54.582031 240.804688 C 56.527344 244.371094 58.609375 247.566406 60.695312 250.1875 C 63.851562 254.167969 66.78125 256.535156 69.324219 257.226562 C 70.46875 257.546875 71.542969 257.5 72.527344 257.132812 C 81.25 253.730469 105.558594 244.253906 114.507812 240.78125 C 117.664062 239.5625 119.0625 235.011719 118.582031 227.652344 C 118.191406 221.742188 116.589844 214.566406 114.027344 207.183594 C 161.542969 187.957031 214.441406 187.957031 261.960938 207.183594 C 259.394531 214.566406 257.792969 221.742188 257.402344 227.652344 C 256.921875 235.011719 258.320312 239.5625 261.476562 240.78125 C 270.40625 244.253906 294.714844 253.730469 303.457031 257.132812 C 304.441406 257.523438 305.515625 257.546875 306.660156 257.226562 C 309.203125 256.535156 312.132812 254.167969 315.292969 250.1875 C 317.375 247.566406 319.433594 244.371094 321.402344 240.804688 C 321.425781 240.851562 321.449219 240.921875 321.492188 240.96875 C 321.699219 241.359375 322.066406 241.726562 322.523438 241.980469 C 322.636719 242.046875 322.777344 242.117188 322.890625 242.164062 C 323.234375 242.300781 323.578125 242.347656 323.921875 242.347656 C 324.492188 242.324219 324.949219 242.046875 325.179688 241.632812 L 326.851562 238.644531 C 328.0625 239.105469 329.6875 240.300781 332.503906 236 L 336.347656 237.496094 C 337.835938 238.070312 339.371094 235.722656 340.21875 233.515625 C 341.042969 231.285156 341.5 228.503906 339.988281 227.925781 Z M 334.65625 218.476562 C 334.90625 218.453125 335.160156 218.542969 335.363281 218.660156 C 335.847656 218.933594 336.28125 219.535156 335.707031 219.601562 C 335.523438 219.625 335.34375 219.578125 335.160156 219.511719 C 334.863281 219.394531 334.585938 219.1875 334.425781 218.933594 C 334.425781 218.933594 334.425781 218.914062 334.402344 218.914062 C 334.265625 218.636719 334.359375 218.476562 334.65625 218.476562 Z M 333.992188 219.738281 C 334.335938 220.085938 334.769531 220.339844 335.273438 220.429688 C 333.921875 222.84375 335.042969 220.84375 333.375 223.832031 C 333.007812 223.972656 332.183594 223.511719 332.113281 223.121094 C 332.710938 222.015625 332.183594 222.984375 333.992188 219.738281 Z M 43.894531 223.121094 C 43.824219 223.511719 43 223.972656 42.632812 223.832031 C 41.375 221.558594 42.632812 223.8125 40.734375 220.429688 C 41.214844 220.339844 41.671875 220.085938 42.015625 219.738281 C 42.566406 220.753906 43.367188 222.179688 43.894531 223.121094 Z M 41.328125 218.476562 C 42.152344 218.519531 41.144531 219.695312 40.277344 219.601562 C 39.5 219.511719 40.484375 218.40625 41.328125 218.476562 Z M 39.199219 235.816406 C 38.035156 235.078125 36.386719 230.800781 36.75 229.46875 L 40.207031 228.132812 C 40.734375 230.25 41.625 232.550781 42.65625 234.480469 Z M 47.441406 237.148438 C 45.976562 237.125 42.015625 230.226562 41.671875 224.914062 C 43.070312 226.132812 46.066406 224.15625 45.128906 222.476562 L 44.761719 221.808594 L 46.386719 221.1875 C 47.851562 225.949219 49.707031 230.777344 51.882812 235.449219 C 51.675781 235.492188 47.648438 237.058594 47.441406 237.148438 Z M 52.0625 240.875 L 50.507812 238.09375 L 51.859375 237.5625 L 53.324219 240.183594 C 53.253906 240.554688 52.429688 241.011719 52.0625 240.875 Z M 71.816406 255.25 C 67.515625 256.925781 57.785156 245.957031 50.738281 227.652344 C 43.753906 209.574219 43.433594 194.695312 47.785156 192.996094 L 54.492188 190.371094 C 51.996094 196.398438 54.148438 206.929688 55.796875 213.1875 C 56.894531 217.347656 58.199219 221.257812 59.367188 224.292969 C 60.761719 227.949219 62.777344 232.390625 65.109375 236.6875 C 68.957031 243.726562 73.761719 250.417969 78.523438 252.648438 Z M 82.324219 251.15625 C 79.121094 252.398438 72.871094 246.625 66.988281 235.953125 C 64.996094 232.34375 63.027344 228.179688 61.242188 223.558594 C 59.730469 219.671875 58.542969 215.945312 57.648438 212.472656 C 54.308594 199.59375 54.925781 190.210938 58.289062 188.902344 L 60.695312 187.957031 C 60.832031 187.910156 64.835938 186.347656 65.019531 186.277344 C 62.570312 192.210938 64.652344 202.859375 66.300781 209.09375 C 67.378906 213.140625 68.660156 216.980469 69.894531 220.175781 C 71.335938 223.878906 73.28125 228.296875 75.617188 232.574219 C 78.570312 238 82.140625 243.199219 85.941406 246.441406 C 86.878906 247.222656 87.933594 247.980469 89.03125 248.511719 C 86.46875 249.542969 84.683594 250.234375 82.324219 251.15625 Z M 94.867188 246.371094 C 91.273438 247.773438 89.558594 247.613281 85.183594 242.945312 C 82.734375 240.324219 80.058594 236.574219 77.472656 231.859375 C 75.480469 228.25 73.511719 224.085938 71.726562 219.464844 C 70.46875 216.199219 69.1875 212.359375 68.132812 208.355469 C 66.714844 202.929688 65.386719 195.890625 66.074219 190.304688 C 66.578125 186.117188 67.421875 185.242188 70.695312 183.980469 C 71.910156 183.496094 73.488281 182.96875 75.480469 182.183594 C 74.222656 185.222656 74.175781 189.613281 74.65625 194.027344 C 75.089844 197.9375 75.9375 201.871094 76.761719 205 C 76.898438 205.550781 77.035156 206.058594 77.175781 206.5625 C 78.042969 209.667969 79.121094 212.863281 80.355469 216.082031 C 81.589844 219.304688 82.964844 222.386719 84.40625 225.28125 C 84.886719 226.25 85.460938 227.351562 86.101562 228.503906 C 89.375 234.457031 94.457031 242.070312 99.535156 244.4375 C 97.613281 245.199219 96.125 245.886719 94.867188 246.371094 Z M 105.488281 242.207031 C 101.78125 243.65625 100.039062 243.542969 95.667969 238.851562 C 93.21875 236.230469 90.542969 232.480469 87.953125 227.765625 C 85.964844 224.15625 83.996094 219.992188 82.210938 215.371094 C 80.699219 211.484375 79.507812 207.757812 78.617188 204.285156 C 77.5625 200.238281 76.898438 196.511719 76.601562 193.292969 C 75.9375 186.300781 76.945312 181.632812 79.28125 180.714844 C 79.945312 180.460938 81.546875 179.839844 81.683594 179.769531 C 83.949219 178.898438 83.582031 179.035156 86.007812 178.09375 C 84.75 181.128906 84.703125 185.496094 85.183594 189.9375 C 85.621094 193.84375 86.46875 197.777344 87.269531 200.90625 C 87.40625 201.457031 87.542969 201.984375 87.679688 202.46875 C 88.550781 205.574219 89.625 208.769531 90.863281 211.988281 C 92.097656 215.210938 93.472656 218.292969 94.914062 221.1875 C 95.394531 222.15625 95.964844 223.257812 96.605469 224.410156 C 99.878906 230.363281 104.984375 237.976562 110.042969 240.347656 C 108.1875 241.082031 106.722656 241.726562 105.488281 242.207031 Z M 116.65625 230.824219 C 116.613281 235.148438 115.695312 238.113281 113.796875 238.875 C 113.429688 239.011719 113.042969 239.082031 112.628906 239.058594 C 111.210938 238.988281 109.402344 237.976562 107.160156 235.816406 C 101.046875 229.90625 95.78125 219.328125 92.691406 211.324219 C 87.359375 197.523438 84.339844 178.757812 89.738281 176.667969 C 93.746094 175.101562 102.511719 184.554688 109.425781 200.765625 C 109.082031 200.90625 108.738281 201.066406 108.371094 201.203125 C 103.632812 190.074219 96.101562 179.910156 91.867188 181.566406 C 87.40625 183.3125 88.757812 197.546875 94.867188 213.394531 C 95.441406 214.863281 96.011719 216.289062 96.628906 217.671875 C 99.214844 223.210938 103.199219 230.410156 107.914062 234.988281 C 110.292969 237.242188 112.242188 238.253906 113.386719 237.792969 C 114.757812 237.265625 115.996094 234.136719 115.351562 226.9375 C 114.871094 221.441406 113.339844 214.820312 111.117188 208.308594 C 111.460938 208.171875 111.828125 208.011719 112.171875 207.875 C 115.125 216.472656 116.703125 224.914062 116.65625 230.824219 Z M 105.097656 214.472656 C 105.121094 213.414062 104.914062 212.21875 104.6875 211.207031 C 105.03125 211.046875 105.394531 210.886719 105.738281 210.726562 C 106.585938 214.3125 106.128906 216.152344 105.785156 216.289062 C 105.558594 216.382812 104.6875 215.898438 103.519531 214.359375 C 97.386719 206.308594 96.699219 190.925781 103.039062 203.527344 C 102.695312 203.6875 102.351562 203.847656 102.007812 204.011719 C 101.070312 202.148438 100.246094 200.996094 99.71875 200.398438 C 99.582031 204.355469 102.398438 211.574219 105.097656 214.472656 Z M 96.652344 199.824219 C 96.058594 206.078125 102.214844 219.808594 106.519531 218.128906 C 108.554688 217.324219 108.554688 213.761719 107.59375 209.875 C 107.9375 209.714844 108.304688 209.574219 108.648438 209.414062 C 111.117188 219.1875 106.378906 220.890625 103.085938 218.382812 C 98.003906 214.519531 92.050781 198.078125 97.890625 195.800781 C 99.949219 194.996094 103.015625 196.398438 105.945312 202.214844 C 105.601562 202.378906 105.257812 202.515625 104.894531 202.675781 C 101.09375 195.203125 97.066406 195.410156 96.652344 199.824219 Z M 230.898438 195.433594 C 216.84375 192.328125 202.402344 190.761719 188.003906 190.761719 C 173.605469 190.761719 159.164062 192.328125 145.109375 195.433594 C 131.148438 198.511719 117.4375 203.136719 104.640625 209.023438 C 103.839844 208.722656 102.992188 206.402344 103.085938 205.6875 C 156.371094 181.152344 218.171875 180.484375 272.898438 205.6875 L 272.785156 205.917969 C 272.738281 206.792969 272.097656 208.402344 271.390625 208.929688 L 271.34375 209.023438 C 271.320312 209.023438 271.296875 209 271.273438 209 C 271.253906 209.023438 271.230469 209.023438 271.230469 209.023438 L 271.253906 208.976562 C 258.753906 203.25 245.160156 198.582031 230.898438 195.433594 Z M 269.46875 218.152344 C 273.769531 219.832031 279.925781 206.078125 279.332031 199.847656 C 279.171875 198.261719 278.578125 197.226562 277.683594 196.878906 C 276.082031 196.261719 273.519531 197.894531 271.09375 202.699219 C 270.75 202.539062 270.40625 202.398438 270.039062 202.238281 C 272.96875 196.421875 276.035156 195.019531 278.097656 195.824219 C 279.421875 196.351562 280.269531 197.730469 280.476562 199.734375 C 281.09375 206.195312 274.777344 221.441406 269.078125 219.210938 C 266.238281 218.105469 266.238281 213.808594 267.359375 209.414062 C 267.703125 209.574219 268.070312 209.714844 268.414062 209.875 C 267.429688 213.785156 267.429688 217.347656 269.46875 218.152344 Z M 270.886719 214.472656 C 273.3125 211.875 275.851562 205.757812 276.21875 201.617188 C 276.265625 201.066406 276.265625 200.675781 276.265625 200.375 C 275.738281 200.972656 274.914062 202.125 273.976562 203.988281 C 273.632812 203.824219 273.289062 203.664062 272.945312 203.503906 C 274.433594 200.582031 276.035156 198.46875 276.859375 198.789062 C 277.296875 198.972656 277.523438 199.847656 277.363281 201.6875 C 276.882812 207.089844 273.402344 214.152344 270.953125 215.921875 C 270.519531 216.246094 270.269531 216.269531 270.199219 216.246094 C 270.085938 216.199219 269.648438 215.578125 269.789062 213.578125 C 269.855469 212.679688 270.015625 211.691406 270.246094 210.679688 C 270.589844 210.839844 270.953125 211 271.296875 211.164062 C 271.070312 212.21875 270.863281 213.414062 270.886719 214.472656 Z M 262.1875 238.875 C 260.289062 238.136719 259.371094 235.148438 259.328125 230.824219 C 259.28125 224.914062 260.859375 216.472656 263.8125 207.898438 C 264.15625 208.035156 264.523438 208.195312 264.867188 208.332031 C 262.644531 214.839844 261.136719 221.464844 260.632812 226.960938 C 259.992188 234.136719 261.226562 237.265625 262.601562 237.816406 C 263.765625 238.277344 265.691406 237.265625 268.046875 234.988281 C 272.785156 230.410156 276.746094 223.191406 279.332031 217.671875 C 279.925781 216.289062 280.523438 214.863281 281.09375 213.394531 C 287.207031 197.546875 288.554688 183.3125 284.09375 181.566406 C 280.773438 180.277344 275.167969 186.277344 269.992188 195.984375 C 269.167969 197.664062 268.367188 199.410156 267.589844 201.203125 C 267.246094 201.066406 266.902344 200.90625 266.535156 200.765625 C 273.449219 184.554688 282.191406 175.101562 286.222656 176.667969 C 291.625 178.78125 288.601562 197.546875 283.269531 211.324219 C 280.179688 219.328125 274.914062 229.90625 268.804688 235.816406 C 266.558594 237.976562 264.75 238.988281 263.332031 239.058594 C 262.945312 239.058594 262.554688 239.011719 262.1875 238.875 Z M 270.496094 242.207031 C 269.261719 241.726562 267.820312 241.082031 265.988281 240.367188 C 271.023438 238 276.128906 230.363281 279.421875 224.433594 C 280.066406 223.28125 280.636719 222.199219 281.117188 221.210938 C 282.558594 218.3125 283.910156 215.234375 285.167969 212.011719 C 286.40625 208.792969 287.480469 205.597656 288.351562 202.492188 C 288.488281 202.007812 288.625 201.480469 288.761719 200.929688 C 289.585938 197.800781 290.433594 193.867188 290.84375 189.957031 C 291.324219 185.519531 291.28125 181.128906 290.019531 178.113281 C 292.425781 179.058594 292.082031 178.917969 294.347656 179.792969 C 294.484375 179.839844 296.085938 180.460938 296.75 180.738281 C 299.0625 181.632812 300.09375 186.324219 299.429688 193.316406 C 299.132812 196.535156 298.46875 200.261719 297.414062 204.308594 C 296.523438 207.78125 295.332031 211.507812 293.820312 215.394531 C 292.035156 220.039062 290.066406 224.179688 288.074219 227.789062 C 285.464844 232.503906 282.8125 236.253906 280.363281 238.875 C 275.945312 243.542969 274.183594 243.65625 270.496094 242.207031 Z M 281.117188 246.371094 C 279.859375 245.886719 278.371094 245.199219 276.449219 244.460938 C 281.507812 242.09375 286.589844 234.480469 289.882812 228.523438 C 290.523438 227.375 291.074219 226.292969 291.578125 225.304688 C 293.019531 222.40625 294.371094 219.328125 295.628906 216.105469 C 296.867188 212.886719 297.941406 209.691406 298.8125 206.585938 C 298.949219 206.101562 299.085938 205.574219 299.222656 205.023438 C 300.046875 201.894531 300.894531 197.960938 301.328125 194.050781 C 301.808594 189.613281 301.761719 185.246094 300.503906 182.207031 C 302.519531 182.992188 304.074219 183.519531 305.289062 184.003906 C 308.5625 185.265625 309.410156 186.140625 309.914062 190.328125 C 310.164062 192.464844 310.140625 194.878906 309.890625 197.410156 C 309.546875 200.953125 308.789062 204.722656 307.828125 208.402344 C 306.777344 212.382812 305.496094 216.246094 304.234375 219.511719 C 302.449219 224.15625 300.480469 228.296875 298.492188 231.90625 C 295.882812 236.621094 293.226562 240.367188 290.777344 242.992188 C 286.449219 247.613281 284.710938 247.773438 281.117188 246.371094 Z M 293.660156 251.15625 C 291.304688 250.234375 289.519531 249.542969 286.953125 248.53125 C 288.074219 248.003906 289.128906 247.246094 290.042969 246.464844 C 293.867188 243.21875 297.414062 238.023438 300.367188 232.597656 C 302.703125 228.316406 304.671875 223.902344 306.089844 220.199219 C 307.324219 217.003906 308.628906 213.140625 309.683594 209.117188 C 310.644531 205.503906 311.421875 201.734375 311.8125 198.167969 C 312.132812 195.226562 312.179688 192.417969 311.859375 189.9375 C 311.699219 188.714844 311.421875 187.453125 310.964844 186.300781 L 313.894531 187.453125 C 314.148438 187.542969 315.152344 187.933594 315.292969 187.980469 L 317.695312 188.921875 C 320.007812 189.820312 321.035156 194.511719 320.371094 201.503906 C 320.074219 204.722656 319.410156 208.425781 318.359375 212.496094 C 317.464844 215.96875 316.273438 219.695312 314.765625 223.582031 C 312.980469 228.226562 311.011719 232.367188 309.019531 235.976562 C 303.113281 246.625 296.886719 252.417969 293.660156 251.15625 Z M 322.273438 234.664062 C 322.136719 234.988281 321.976562 235.285156 321.835938 235.585938 C 321.699219 235.882812 321.539062 236.183594 321.402344 236.480469 C 320.785156 237.722656 320.167969 238.921875 319.527344 240.070312 C 313.621094 250.71875 307.394531 256.511719 304.191406 255.269531 L 297.484375 252.648438 C 302.246094 250.417969 307.027344 243.75 310.894531 236.6875 C 313.253906 232.390625 315.246094 227.949219 316.640625 224.292969 C 317.808594 221.257812 319.113281 217.347656 320.210938 213.1875 C 321.171875 209.597656 321.953125 205.804688 322.363281 202.238281 C 322.890625 197.640625 322.777344 193.386719 321.515625 190.371094 L 328.222656 192.996094 C 330.535156 193.890625 331.566406 198.582031 330.902344 205.574219 C 330.605469 208.792969 329.941406 212.496094 328.886719 216.566406 C 328.726562 217.210938 328.542969 217.878906 328.359375 218.519531 C 327.535156 221.394531 326.53125 224.476562 325.292969 227.652344 C 324.308594 230.136719 323.300781 232.457031 322.273438 234.664062 Z M 323.921875 240.875 C 323.851562 240.898438 323.644531 240.921875 323.371094 240.804688 C 323.300781 240.78125 323.234375 240.761719 323.164062 240.714844 C 322.800781 240.507812 322.660156 240.253906 322.636719 240.160156 L 324.105469 237.539062 L 325.453125 238.070312 Z M 328.542969 237.148438 C 328.316406 237.058594 324.445312 235.5625 324.105469 235.425781 C 326.300781 230.757812 328.132812 225.949219 329.597656 221.167969 L 331.222656 221.785156 L 330.855469 222.453125 C 329.917969 224.132812 332.914062 226.109375 334.3125 224.890625 C 333.992188 230.113281 330.03125 237.101562 328.542969 237.148438 Z M 336.785156 235.816406 L 333.328125 234.480469 C 334.335938 232.597656 335.25 230.296875 335.777344 228.132812 L 339.234375 229.46875 C 339.601562 230.800781 337.996094 235.054688 336.785156 235.816406 Z M 336.785156 235.816406 " fill-opacity="1" fill-rule="nonzero"/></g><path fill="#ffffff" d="M 270.609375 208.332031 C 270.886719 207.710938 271.183594 207.070312 271.457031 206.449219 C 219.707031 182.921875 158.773438 181.75 104.390625 206.492188 C 104.664062 207.113281 104.960938 207.757812 105.234375 208.378906 C 156.578125 185.015625 216.867188 183.910156 270.609375 208.332031 Z M 270.609375 208.332031 " fill-opacity="1" fill-rule="nonzero"/><g clip-path="url(#8718632e1c)"><g clip-path="url(#426173c0e4)"><path stroke-linecap="butt" transform="matrix(0.749566, 0, 0, 0.750451, 167.238774, 205.67067)" fill="none" stroke-linejoin="miter" d="M 12.991232 0.00160611 L 41.028281 0.00160611 C 48.204307 0.00160611 54.020171 5.815819 54.020171 12.993795 C 54.020171 20.166566 48.204307 25.985984 41.028281 25.985984 L 12.991232 25.985984 C 5.815207 25.985984 -0.000656737 20.166566 -0.000656737 12.993795 C -0.000656737 5.815819 5.815207 0.00160611 12.991232 0.00160611 Z M 12.991232 0.00160611 " stroke="#ff3131" stroke-width="3" stroke-opacity="1" stroke-miterlimit="4"/></g></g><g fill="#ff3131" fill-opacity="1"><g transform="translate(178.611804, 216.920669)"><g><path d="M 0.390625 0 L 0.390625 -0.765625 C 0.390625 -1.015625 0.4375 -1.234375 0.53125 -1.421875 C 0.632812 -1.617188 0.765625 -1.785156 0.921875 -1.921875 C 1.078125 -2.054688 1.25 -2.175781 1.4375 -2.28125 C 1.625 -2.382812 1.8125 -2.484375 2 -2.578125 C 2.1875 -2.671875 2.359375 -2.765625 2.515625 -2.859375 C 2.679688 -2.953125 2.8125 -3.054688 2.90625 -3.171875 C 3 -3.296875 3.046875 -3.4375 3.046875 -3.59375 C 3.046875 -3.800781 2.972656 -3.96875 2.828125 -4.09375 C 2.691406 -4.21875 2.5 -4.28125 2.25 -4.28125 C 2 -4.28125 1.785156 -4.207031 1.609375 -4.0625 C 1.429688 -3.914062 1.320312 -3.695312 1.28125 -3.40625 L 0.296875 -3.40625 C 0.304688 -3.71875 0.382812 -4.003906 0.53125 -4.265625 C 0.675781 -4.535156 0.894531 -4.742188 1.1875 -4.890625 C 1.476562 -5.046875 1.84375 -5.125 2.28125 -5.125 C 2.65625 -5.125 2.976562 -5.0625 3.25 -4.9375 C 3.53125 -4.8125 3.742188 -4.632812 3.890625 -4.40625 C 4.046875 -4.175781 4.125 -3.90625 4.125 -3.59375 C 4.125 -3.34375 4.078125 -3.125 3.984375 -2.9375 C 3.890625 -2.757812 3.765625 -2.601562 3.609375 -2.46875 C 3.453125 -2.34375 3.28125 -2.226562 3.09375 -2.125 C 2.914062 -2.03125 2.734375 -1.941406 2.546875 -1.859375 C 2.367188 -1.773438 2.203125 -1.6875 2.046875 -1.59375 C 1.890625 -1.507812 1.765625 -1.410156 1.671875 -1.296875 C 1.578125 -1.191406 1.53125 -1.0625 1.53125 -0.90625 L 1.53125 -0.859375 L 4.109375 -0.859375 L 4.109375 0 Z M 0.390625 0 "/></g></g></g><g fill="#ff3131" fill-opacity="1"><g transform="translate(182.956206, 216.920669)"><g><path d="M 2.265625 -5.125 C 2.859375 -5.125 3.328125 -4.898438 3.671875 -4.453125 C 4.023438 -4.003906 4.203125 -3.359375 4.203125 -2.515625 C 4.203125 -1.679688 4.03125 -1.039062 3.6875 -0.59375 C 3.34375 -0.144531 2.867188 0.078125 2.265625 0.078125 C 1.648438 0.078125 1.171875 -0.144531 0.828125 -0.59375 C 0.484375 -1.039062 0.3125 -1.679688 0.3125 -2.515625 C 0.3125 -3.078125 0.390625 -3.550781 0.546875 -3.9375 C 0.703125 -4.332031 0.925781 -4.628906 1.21875 -4.828125 C 1.507812 -5.023438 1.859375 -5.125 2.265625 -5.125 Z M 2.265625 -0.765625 C 2.566406 -0.765625 2.785156 -0.894531 2.921875 -1.15625 C 3.054688 -1.425781 3.125 -1.878906 3.125 -2.515625 C 3.125 -3.160156 3.050781 -3.625 2.90625 -3.90625 C 2.769531 -4.1875 2.550781 -4.328125 2.25 -4.328125 C 1.957031 -4.328125 1.738281 -4.1875 1.59375 -3.90625 C 1.445312 -3.625 1.375 -3.160156 1.375 -2.515625 C 1.375 -1.890625 1.445312 -1.441406 1.59375 -1.171875 C 1.738281 -0.898438 1.960938 -0.765625 2.265625 -0.765625 Z M 2.265625 -0.765625 "/></g></g></g><g fill="#ff3131" fill-opacity="1"><g transform="translate(187.367074, 216.920669)"><g><path d="M 0.390625 0 L 0.390625 -0.765625 C 0.390625 -1.015625 0.4375 -1.234375 0.53125 -1.421875 C 0.632812 -1.617188 0.765625 -1.785156 0.921875 -1.921875 C 1.078125 -2.054688 1.25 -2.175781 1.4375 -2.28125 C 1.625 -2.382812 1.8125 -2.484375 2 -2.578125 C 2.1875 -2.671875 2.359375 -2.765625 2.515625 -2.859375 C 2.679688 -2.953125 2.8125 -3.054688 2.90625 -3.171875 C 3 -3.296875 3.046875 -3.4375 3.046875 -3.59375 C 3.046875 -3.800781 2.972656 -3.96875 2.828125 -4.09375 C 2.691406 -4.21875 2.5 -4.28125 2.25 -4.28125 C 2 -4.28125 1.785156 -4.207031 1.609375 -4.0625 C 1.429688 -3.914062 1.320312 -3.695312 1.28125 -3.40625 L 0.296875 -3.40625 C 0.304688 -3.71875 0.382812 -4.003906 0.53125 -4.265625 C 0.675781 -4.535156 0.894531 -4.742188 1.1875 -4.890625 C 1.476562 -5.046875 1.84375 -5.125 2.28125 -5.125 C 2.65625 -5.125 2.976562 -5.0625 3.25 -4.9375 C 3.53125 -4.8125 3.742188 -4.632812 3.890625 -4.40625 C 4.046875 -4.175781 4.125 -3.90625 4.125 -3.59375 C 4.125 -3.34375 4.078125 -3.125 3.984375 -2.9375 C 3.890625 -2.757812 3.765625 -2.601562 3.609375 -2.46875 C 3.453125 -2.34375 3.28125 -2.226562 3.09375 -2.125 C 2.914062 -2.03125 2.734375 -1.941406 2.546875 -1.859375 C 2.367188 -1.773438 2.203125 -1.6875 2.046875 -1.59375 C 1.890625 -1.507812 1.765625 -1.410156 1.671875 -1.296875 C 1.578125 -1.191406 1.53125 -1.0625 1.53125 -0.90625 L 1.53125 -0.859375 L 4.109375 -0.859375 L 4.109375 0 Z M 0.390625 0 "/></g></g></g><g fill="#ff3131" fill-opacity="1"><g transform="translate(191.711475, 216.920669)"><g><path d="M 0.34375 -3.5 C 0.34375 -3.863281 0.425781 -4.164062 0.59375 -4.40625 C 0.769531 -4.644531 1.003906 -4.820312 1.296875 -4.9375 C 1.585938 -5.0625 1.910156 -5.125 2.265625 -5.125 C 2.640625 -5.125 2.972656 -5.078125 3.265625 -4.984375 C 3.566406 -4.890625 3.800781 -4.738281 3.96875 -4.53125 C 4.144531 -4.332031 4.234375 -4.078125 4.234375 -3.765625 C 4.234375 -3.523438 4.160156 -3.304688 4.015625 -3.109375 C 3.867188 -2.921875 3.628906 -2.769531 3.296875 -2.65625 C 3.484375 -2.601562 3.65625 -2.523438 3.8125 -2.421875 C 3.976562 -2.316406 4.109375 -2.179688 4.203125 -2.015625 C 4.296875 -1.859375 4.34375 -1.664062 4.34375 -1.4375 C 4.34375 -1.1875 4.285156 -0.96875 4.171875 -0.78125 C 4.066406 -0.59375 3.914062 -0.429688 3.71875 -0.296875 C 3.53125 -0.171875 3.304688 -0.078125 3.046875 -0.015625 C 2.796875 0.046875 2.523438 0.078125 2.234375 0.078125 C 1.828125 0.078125 1.484375 0.0078125 1.203125 -0.125 C 0.921875 -0.257812 0.703125 -0.445312 0.546875 -0.6875 C 0.390625 -0.9375 0.3125 -1.226562 0.3125 -1.5625 L 1.296875 -1.5625 C 1.335938 -1.28125 1.445312 -1.070312 1.625 -0.9375 C 1.800781 -0.8125 2.007812 -0.75 2.25 -0.75 C 2.457031 -0.75 2.632812 -0.78125 2.78125 -0.84375 C 2.9375 -0.90625 3.054688 -0.988281 3.140625 -1.09375 C 3.222656 -1.195312 3.265625 -1.320312 3.265625 -1.46875 C 3.265625 -1.613281 3.222656 -1.738281 3.140625 -1.84375 C 3.054688 -1.945312 2.9375 -2.023438 2.78125 -2.078125 C 2.632812 -2.140625 2.46875 -2.175781 2.28125 -2.1875 L 1.796875 -2.203125 L 1.796875 -3.015625 L 2.234375 -3.03125 C 2.421875 -3.039062 2.582031 -3.078125 2.71875 -3.140625 C 2.851562 -3.203125 2.957031 -3.28125 3.03125 -3.375 C 3.101562 -3.476562 3.140625 -3.597656 3.140625 -3.734375 C 3.140625 -3.847656 3.097656 -3.953125 3.015625 -4.046875 C 2.941406 -4.140625 2.835938 -4.210938 2.703125 -4.265625 C 2.566406 -4.316406 2.414062 -4.34375 2.25 -4.34375 C 2.082031 -4.34375 1.929688 -4.3125 1.796875 -4.25 C 1.660156 -4.195312 1.550781 -4.109375 1.46875 -3.984375 C 1.382812 -3.867188 1.332031 -3.707031 1.3125 -3.5 Z M 0.34375 -3.5 "/></g></g></g><g fill="#ffffff" fill-opacity="1"><g transform="translate(89.355207, 192.552377)"><g><path d="M 36.96875 -28.015625 C 36.894531 -29.871094 36.894531 -31.722656 36.96875 -33.652344 C 37.28125 -37.28125 38.050781 -41.0625 37.589844 -44.6875 C 37.355469 -46.773438 36.042969 -48.472656 33.804688 -48.472656 C 31.800781 -48.472656 30.023438 -46.773438 30.023438 -44.6875 C 30.101562 -43.375 30.101562 -42.066406 30.101562 -40.753906 L 29.714844 -41.136719 C 28.171875 -42.527344 26.472656 -43.6875 24.777344 -44.765625 C 21.148438 -47.160156 17.367188 -48.855469 13.199219 -50.089844 C 12.734375 -50.246094 12.347656 -50.246094 12.039062 -50.167969 C 10.417969 -50.710938 8.722656 -51.171875 7.023438 -51.328125 C 4.398438 -51.558594 2.160156 -49.9375 1.542969 -47.390625 C 0.925781 -44.84375 2.316406 -42.605469 3.703125 -40.675781 C 6.5625 -36.96875 9.878906 -33.730469 13.507812 -30.796875 L 14.664062 -29.871094 C 15.746094 -28.789062 16.824219 -27.707031 17.828125 -26.550781 C 20.453125 -23.847656 22.921875 -21.070312 25.316406 -18.214844 C 26.085938 -17.289062 26.859375 -16.363281 27.554688 -15.4375 C 27.707031 -14.972656 27.941406 -14.585938 28.09375 -14.203125 C 28.402344 -13.585938 29.097656 -12.117188 28.710938 -11.269531 C 28.710938 -11.039062 28.710938 -10.804688 28.480469 -10.574219 C 27.863281 -9.648438 26.320312 -9.492188 25.316406 -9.417969 C 23.617188 -9.261719 21.996094 -9.261719 20.375 -9.417969 C 19.449219 -9.492188 18.523438 -9.648438 17.597656 -9.957031 C 16.671875 -10.652344 15.824219 -11.5 15.050781 -12.273438 C 13.660156 -13.738281 12.734375 -15.667969 12.039062 -17.519531 C 10.265625 -22.613281 10.035156 -28.09375 8.414062 -33.1875 C 7.796875 -35.042969 6.25 -35.734375 4.398438 -35.503906 C 2.855469 -35.273438 1.699219 -33.804688 1.390625 -32.417969 C 0.925781 -30.179688 1.390625 -27.785156 1.699219 -25.625 C 2.007812 -23.15625 2.316406 -20.683594 2.933594 -18.292969 C 4.089844 -14.046875 4.941406 -9.726562 5.402344 -5.402344 C 5.558594 -4.632812 5.789062 -3.9375 6.25 -3.394531 C 6.484375 -2.007812 7.253906 -0.695312 8.105469 0.15625 C 8.875 0.925781 10.109375 0.925781 10.882812 0.15625 C 11.886719 -0.695312 12.425781 -1.929688 12.734375 -3.242188 C 14.203125 -2.316406 15.824219 -1.621094 17.519531 -1.234375 C 19.992188 -0.539062 22.921875 -0.230469 25.546875 -0.617188 L 25.777344 -0.617188 C 30.640625 -0.847656 35.890625 -4.476562 36.042969 -9.492188 C 36.351562 -11.5 35.890625 -13.585938 35.042969 -15.515625 C 34.578125 -17.597656 33.496094 -19.527344 32.109375 -21.300781 C 30.101562 -23.847656 27.785156 -26.242188 25.546875 -28.636719 C 23.230469 -31.183594 20.761719 -33.652344 18.292969 -36.042969 L 15.128906 -39.054688 C 17.132812 -38.589844 19.21875 -37.898438 21.148438 -37.046875 C 24.851562 -35.351562 28.25 -32.957031 30.488281 -29.636719 C 30.5625 -29.636719 30.5625 -29.5625 30.640625 -29.5625 C 31.105469 -25.933594 32.417969 -20.839844 36.199219 -21.765625 C 37.28125 -22.074219 37.898438 -23.230469 37.589844 -24.234375 C 37.355469 -25.546875 37.046875 -26.707031 36.96875 -28.015625 Z M 36.96875 -28.015625 "/></g></g></g><g fill="#ffffff" fill-opacity="1"><g transform="translate(121.692332, 192.552377)"><g><path d="M 35.042969 -26.242188 C 36.199219 -27.324219 36.816406 -28.867188 36.507812 -31.027344 C 36.351562 -31.800781 36.042969 -32.570312 35.582031 -33.34375 C 35.660156 -33.960938 35.425781 -34.578125 34.808594 -35.117188 C 30.410156 -39.054688 25.855469 -42.683594 20.992188 -45.925781 C 18.601562 -47.46875 16.207031 -49.011719 13.660156 -50.324219 C 11.191406 -51.558594 7.871094 -52.5625 5.324219 -50.785156 C 4.863281 -50.402344 4.476562 -49.859375 4.554688 -49.164062 C 3.394531 -48.78125 2.46875 -47.542969 2.933594 -46.234375 C 4.089844 -42.914062 5.09375 -39.519531 6.019531 -36.121094 L 5.558594 -36.351562 C 4.167969 -36.894531 2.394531 -35.96875 1.699219 -34.808594 C 0.847656 -33.34375 1.234375 -30.949219 2.933594 -30.179688 C 4.632812 -29.40625 6.328125 -28.636719 8.105469 -27.941406 C 8.179688 -27.476562 8.335938 -27.089844 8.414062 -26.628906 C 6.097656 -27.476562 3.78125 -28.402344 1.542969 -29.484375 C 1.390625 -29.5625 1.3125 -29.40625 1.390625 -29.328125 C 3.703125 -28.09375 6.097656 -27.015625 8.488281 -26.085938 C 8.953125 -22.921875 9.417969 -19.683594 9.957031 -16.515625 C 10.34375 -13.816406 10.804688 -11.191406 11.191406 -8.566406 L 11.886719 -4.554688 C 12.039062 -3.472656 12.039062 -2.082031 12.65625 -1.15625 C 12.734375 -1.082031 12.734375 -1.082031 12.734375 -1.15625 C 13.042969 -2.082031 12.734375 -3.242188 12.65625 -4.246094 C 12.425781 -5.558594 12.273438 -6.871094 12.117188 -8.257812 C 11.964844 -9.03125 11.886719 -9.800781 11.808594 -10.652344 C 12.039062 -9.261719 12.347656 -7.949219 12.734375 -6.714844 C 12.8125 -5.710938 12.964844 -4.707031 13.121094 -3.78125 C 13.277344 -2.394531 13.277344 -0.925781 14.125 0.15625 C 15.050781 1.3125 16.671875 0.464844 17.519531 -0.230469 C 18.601562 -1.234375 19.449219 -2.46875 19.835938 -3.78125 C 20.375 -5.558594 20.375 -7.488281 20.222656 -9.339844 C 19.835938 -13.121094 19.0625 -16.980469 18.371094 -20.761719 C 18.214844 -21.609375 17.984375 -22.539062 17.828125 -23.464844 C 18.523438 -23.308594 19.21875 -23.230469 19.914062 -23.078125 C 24.699219 -22.304688 32.261719 -21.226562 35.042969 -26.242188 Z M 25.777344 -34.5 C 27.554688 -33.421875 29.5625 -32.339844 30.640625 -30.71875 C 30.796875 -30.5625 30.875 -30.410156 30.949219 -30.253906 L 30.332031 -30.101562 C 29.871094 -30.023438 29.328125 -29.945312 28.789062 -29.945312 C 26.164062 -29.714844 23.539062 -30.023438 20.992188 -30.5625 C 19.296875 -30.949219 17.675781 -31.414062 16.054688 -31.953125 C 15.4375 -34.964844 14.664062 -37.898438 13.894531 -40.828125 C 15.667969 -40.058594 17.367188 -39.207031 19.0625 -38.359375 C 21.300781 -37.125 23.539062 -35.8125 25.777344 -34.5 Z M 21.765625 -24.160156 C 23.695312 -23.847656 26.398438 -23.695312 29.019531 -24.003906 C 29.019531 -23.925781 30.640625 -24.082031 30.640625 -24.003906 L 27.707031 -23.539062 C 24.699219 -23.230469 21.535156 -23.695312 18.523438 -24.160156 C 18.214844 -24.160156 17.984375 -24.234375 17.675781 -24.3125 C 17.597656 -24.46875 17.597656 -24.699219 17.519531 -24.929688 C 18.988281 -24.621094 20.375 -24.3125 21.765625 -24.160156 Z M 17.90625 -10.574219 L 17.753906 -12.117188 C 17.828125 -12.117188 17.675781 -13.042969 17.753906 -13.121094 L 18.214844 -10.726562 C 18.753906 -8.179688 19.0625 -5.558594 17.984375 -3.164062 C 17.753906 -2.933594 17.519531 -2.777344 17.210938 -2.625 L 17.058594 -2.855469 C 18.292969 -5.171875 18.136719 -8.027344 17.90625 -10.574219 Z M 17.90625 -10.574219 "/></g></g></g><g fill="#ffffff" fill-opacity="1"><g transform="translate(150.942303, 192.552377)"><g><path d="M 29.175781 -33.113281 C 28.789062 -35.425781 28.324219 -37.820312 27.632812 -40.136719 C 26.859375 -42.375 25.777344 -44.535156 24.699219 -46.617188 C 24.3125 -47.3125 23.539062 -47.46875 22.921875 -47.234375 C 22.382812 -48.238281 21.609375 -49.550781 20.609375 -50.167969 C 19.683594 -50.710938 18.371094 -50.710938 17.289062 -50.476562 C 16.285156 -50.554688 15.28125 -50.246094 14.277344 -49.859375 C 11.808594 -49.320312 9.957031 -46.925781 8.644531 -44.070312 C 8.488281 -44.070312 8.257812 -44.148438 8.027344 -44.070312 C 8.335938 -44.921875 8.644531 -45.769531 9.03125 -46.617188 C 9.339844 -47.390625 9.800781 -48.164062 10.265625 -48.933594 C 10.34375 -49.089844 10.1875 -49.164062 10.109375 -49.011719 C 8.800781 -47.3125 7.796875 -45.460938 7.023438 -43.453125 C 6.945312 -43.375 6.945312 -43.300781 6.871094 -43.300781 C 1.699219 -34.65625 0.308594 -24.46875 1.851562 -14.585938 C 2.625 -10.035156 4.167969 -5.402344 7.796875 -2.316406 C 9.878906 -0.617188 12.734375 0.308594 15.28125 -0.15625 C 16.132812 -0.078125 16.980469 -0.078125 17.828125 -0.15625 C 19.992188 -0.464844 21.765625 -1.464844 23.230469 -2.933594 C 24.3125 -3.859375 25.238281 -4.941406 26.085938 -6.097656 C 28.636719 -9.726562 29.328125 -14.433594 29.714844 -18.679688 C 30.253906 -23.539062 29.945312 -28.324219 29.175781 -33.113281 Z M 19.527344 -10.652344 C 19.296875 -9.726562 18.910156 -8.875 18.445312 -8.027344 C 17.984375 -7.179688 17.289062 -6.484375 16.363281 -6.175781 C 13.042969 -5.171875 10.34375 -8.335938 9.109375 -10.882812 C 9.878906 -10.417969 10.882812 -10.1875 11.808594 -10.417969 C 12.117188 -10.496094 12.425781 -10.652344 12.65625 -10.804688 C 11.5 -15.824219 10.882812 -21.070312 11.113281 -26.320312 C 11.269531 -28.09375 11.421875 -29.871094 11.730469 -31.644531 C 11.808594 -31.722656 11.808594 -31.800781 11.886719 -31.953125 C 12.503906 -35.117188 13.507812 -38.28125 14.972656 -41.136719 C 15.28125 -41.679688 15.589844 -42.296875 16.054688 -42.605469 C 11.65625 -33.34375 11.5 -21.996094 13.660156 -11.964844 C 14.046875 -12.65625 14.125 -13.429688 13.96875 -14.277344 C 13.042969 -19.992188 12.964844 -25.933594 13.660156 -31.644531 C 14.046875 -34.578125 14.742188 -37.433594 15.589844 -40.210938 C 15.824219 -40.984375 16.132812 -41.988281 16.59375 -42.835938 L 16.980469 -42.835938 C 17.058594 -42.835938 17.210938 -42.757812 17.289062 -42.683594 C 17.597656 -42.140625 17.828125 -41.523438 18.0625 -40.984375 C 18.601562 -39.671875 19.0625 -38.28125 19.527344 -36.894531 C 19.757812 -35.8125 19.914062 -34.65625 20.144531 -33.496094 C 20.761719 -29.714844 20.992188 -25.777344 21.300781 -21.921875 C 21.300781 -18.136719 20.839844 -14.277344 19.527344 -10.652344 Z M 19.527344 -10.652344 "/></g></g></g><g fill="#ffffff" fill-opacity="1"><g transform="translate(176.333346, 192.552377)"><g><path d="M 44.070312 -45.460938 C 45.925781 -46.234375 46 -49.164062 44.226562 -50.167969 C 44.070312 -50.324219 43.917969 -50.402344 43.761719 -50.476562 C 43.917969 -50.554688 44.148438 -50.554688 44.304688 -50.554688 C 45.074219 -50.710938 44.84375 -52.019531 44.148438 -51.945312 C 42.992188 -51.789062 41.832031 -51.710938 40.675781 -51.558594 C 40.210938 -51.636719 39.75 -51.558594 39.363281 -51.558594 C 38.589844 -51.480469 37.820312 -51.402344 36.96875 -51.25 C 26.242188 -50.324219 15.4375 -50.089844 4.632812 -50.710938 C 4.398438 -50.785156 4.320312 -50.324219 4.554688 -50.324219 C 8.722656 -49.628906 12.890625 -49.164062 17.058594 -48.933594 C 17.058594 -48.855469 16.980469 -48.78125 16.980469 -48.703125 C 12.734375 -48.703125 8.566406 -49.011719 4.320312 -49.398438 C 2.625 -49.550781 1.082031 -48.085938 0.617188 -46.542969 C 0.15625 -44.6875 1.082031 -42.835938 2.625 -41.988281 C 3.085938 -40.753906 4.089844 -39.671875 5.09375 -38.976562 C 6.484375 -38.128906 8.179688 -37.898438 9.800781 -37.664062 C 11.808594 -37.511719 13.894531 -37.433594 15.976562 -37.433594 C 16.980469 -37.433594 17.984375 -37.433594 18.988281 -37.433594 L 18.988281 -34.964844 L 18.832031 -31.566406 C 18.679688 -27.554688 18.445312 -23.539062 18.214844 -19.605469 C 18.0625 -15.667969 17.984375 -11.65625 18.214844 -7.71875 C 18.371094 -4.707031 19.0625 -1.15625 22.304688 -0.15625 C 23.925781 0.308594 25.855469 -0.617188 26.398438 -2.316406 C 26.9375 -3.859375 27.015625 -6.019531 27.324219 -7.410156 L 27.324219 -4.476562 C 27.246094 -3.394531 27.246094 -2.316406 27.167969 -1.234375 L 27.167969 -1.082031 C 28.558594 -2.160156 28.867188 -4.011719 29.019531 -5.867188 C 28.945312 -8.566406 28.789062 -11.269531 28.710938 -13.96875 C 28.710938 -18.679688 28.636719 -23.386719 28.636719 -28.09375 C 28.636719 -31.492188 28.710938 -34.886719 28.710938 -38.28125 C 32.648438 -38.824219 36.507812 -39.519531 40.445312 -40.289062 C 40.675781 -40.289062 40.828125 -40.445312 40.984375 -40.597656 C 41.371094 -40.675781 41.832031 -40.828125 42.140625 -41.0625 C 43.375 -41.910156 43.6875 -43.300781 43.761719 -44.6875 C 43.917969 -44.921875 43.996094 -45.152344 44.070312 -45.460938 Z M 9.800781 -39.519531 C 7.949219 -39.59375 5.941406 -40.136719 4.707031 -41.292969 C 7.71875 -40.367188 10.804688 -39.828125 13.894531 -39.519531 C 12.503906 -39.441406 11.113281 -39.441406 9.800781 -39.519531 Z M 9.800781 -39.519531 "/></g></g></g><g fill="#ffffff" fill-opacity="1"><g transform="translate(214.072981, 192.552377)"><g><path d="M 44.070312 -45.460938 C 45.925781 -46.234375 46 -49.164062 44.226562 -50.167969 C 44.070312 -50.324219 43.917969 -50.402344 43.761719 -50.476562 C 43.917969 -50.554688 44.148438 -50.554688 44.304688 -50.554688 C 45.074219 -50.710938 44.84375 -52.019531 44.148438 -51.945312 C 42.992188 -51.789062 41.832031 -51.710938 40.675781 -51.558594 C 40.210938 -51.636719 39.75 -51.558594 39.363281 -51.558594 C 38.589844 -51.480469 37.820312 -51.402344 36.96875 -51.25 C 26.242188 -50.324219 15.4375 -50.089844 4.632812 -50.710938 C 4.398438 -50.785156 4.320312 -50.324219 4.554688 -50.324219 C 8.722656 -49.628906 12.890625 -49.164062 17.058594 -48.933594 C 17.058594 -48.855469 16.980469 -48.78125 16.980469 -48.703125 C 12.734375 -48.703125 8.566406 -49.011719 4.320312 -49.398438 C 2.625 -49.550781 1.082031 -48.085938 0.617188 -46.542969 C 0.15625 -44.6875 1.082031 -42.835938 2.625 -41.988281 C 3.085938 -40.753906 4.089844 -39.671875 5.09375 -38.976562 C 6.484375 -38.128906 8.179688 -37.898438 9.800781 -37.664062 C 11.808594 -37.511719 13.894531 -37.433594 15.976562 -37.433594 C 16.980469 -37.433594 17.984375 -37.433594 18.988281 -37.433594 L 18.988281 -34.964844 L 18.832031 -31.566406 C 18.679688 -27.554688 18.445312 -23.539062 18.214844 -19.605469 C 18.0625 -15.667969 17.984375 -11.65625 18.214844 -7.71875 C 18.371094 -4.707031 19.0625 -1.15625 22.304688 -0.15625 C 23.925781 0.308594 25.855469 -0.617188 26.398438 -2.316406 C 26.9375 -3.859375 27.015625 -6.019531 27.324219 -7.410156 L 27.324219 -4.476562 C 27.246094 -3.394531 27.246094 -2.316406 27.167969 -1.234375 L 27.167969 -1.082031 C 28.558594 -2.160156 28.867188 -4.011719 29.019531 -5.867188 C 28.945312 -8.566406 28.789062 -11.269531 28.710938 -13.96875 C 28.710938 -18.679688 28.636719 -23.386719 28.636719 -28.09375 C 28.636719 -31.492188 28.710938 -34.886719 28.710938 -38.28125 C 32.648438 -38.824219 36.507812 -39.519531 40.445312 -40.289062 C 40.675781 -40.289062 40.828125 -40.445312 40.984375 -40.597656 C 41.371094 -40.675781 41.832031 -40.828125 42.140625 -41.0625 C 43.375 -41.910156 43.6875 -43.300781 43.761719 -44.6875 C 43.917969 -44.921875 43.996094 -45.152344 44.070312 -45.460938 Z M 9.800781 -39.519531 C 7.949219 -39.59375 5.941406 -40.136719 4.707031 -41.292969 C 7.71875 -40.367188 10.804688 -39.828125 13.894531 -39.519531 C 12.503906 -39.441406 11.113281 -39.441406 9.800781 -39.519531 Z M 9.800781 -39.519531 "/></g></g></g><g fill="#ffffff" fill-opacity="1"><g transform="translate(251.812616, 192.552377)"><g><path d="M 43.996094 -29.40625 C 44.226562 -31.105469 43.761719 -32.492188 42.527344 -33.421875 C 41.523438 -34.191406 40.445312 -35.042969 39.363281 -35.8125 C 39.207031 -36.429688 38.898438 -37.046875 38.28125 -37.511719 C 30.71875 -42.605469 23.078125 -47.851562 14.585938 -50.554688 C 14.511719 -50.554688 14.433594 -50.632812 14.355469 -50.632812 C 13.816406 -50.863281 13.277344 -51.019531 12.734375 -51.25 C 12.582031 -51.402344 12.347656 -51.558594 12.039062 -51.558594 C 9.492188 -52.019531 4.863281 -53.023438 3.394531 -50.167969 C 2.546875 -48.394531 3.394531 -46.234375 4.863281 -44.996094 C 4.398438 -44.304688 3.859375 -43.761719 3.242188 -43.300781 C 3.859375 -40.675781 4.398438 -37.972656 4.941406 -35.351562 C 4.476562 -35.351562 4.011719 -35.351562 3.550781 -35.273438 C 1.234375 -35.273438 0.308594 -31.414062 2.46875 -30.023438 C 3.164062 -29.5625 4.011719 -29.097656 4.785156 -28.789062 L 3.011719 -28.558594 C 3.859375 -28.25 4.707031 -27.941406 5.558594 -27.707031 C 5.867188 -27.632812 6.019531 -27.398438 6.019531 -27.167969 C 6.175781 -27.167969 6.328125 -27.167969 6.484375 -27.167969 L 6.945312 -24.46875 C 7.5625 -20.839844 8.179688 -17.210938 8.800781 -13.585938 L 9.492188 -8.488281 C 9.648438 -6.792969 9.492188 -4.941406 9.878906 -3.320312 C 9.878906 -2.46875 10.652344 -1.929688 11.269531 -2.082031 C 11.347656 -1.621094 11.5 -1.234375 11.730469 -0.847656 C 12.65625 0.230469 14.203125 0.15625 15.203125 -0.695312 C 15.976562 -1.3125 16.515625 -2.082031 16.980469 -3.011719 C 16.980469 -3.394531 16.980469 -3.859375 16.902344 -4.320312 C 17.132812 -8.105469 16.75 -12.039062 16.515625 -15.824219 C 16.363281 -19.371094 16.054688 -22.921875 15.667969 -26.398438 C 17.675781 -26.320312 19.757812 -26.164062 21.765625 -26.085938 C 22.152344 -25.394531 22.613281 -24.621094 23.078125 -23.925781 L 23.078125 -23.847656 C 23.539062 -23.078125 23.925781 -22.304688 24.3125 -21.457031 C 25.777344 -18.601562 27.863281 -13.507812 28.710938 -11.5 C 30.253906 -7.949219 31.800781 -4.320312 33.1875 -0.695312 C 33.496094 -0.539062 33.960938 -0.695312 34.191406 -0.925781 C 34.191406 -0.847656 34.269531 -0.847656 34.347656 -0.847656 C 35.042969 -0.539062 35.734375 -0.539062 36.429688 -0.617188 C 37.742188 -0.078125 39.519531 -0.464844 39.75 -2.160156 C 40.367188 -7.179688 37.664062 -12.039062 35.582031 -16.441406 C 33.960938 -19.757812 32.109375 -22.921875 30.023438 -26.011719 C 33.652344 -25.703125 37.28125 -25.394531 40.90625 -25.160156 C 42.140625 -25.007812 43.609375 -26.320312 43.761719 -27.785156 Z M 12.65625 -41.214844 L 12.425781 -42.449219 C 19.0625 -40.90625 25.238281 -37.589844 31.183594 -33.496094 L 23.695312 -34.421875 C 21.921875 -35.890625 19.371094 -37.972656 17.058594 -36.507812 C 16.671875 -36.199219 16.441406 -35.734375 16.363281 -35.351562 C 15.976562 -35.425781 15.515625 -35.425781 15.128906 -35.503906 C 14.820312 -37.125 14.433594 -38.746094 14.046875 -40.367188 C 13.96875 -41.0625 13.199219 -41.0625 12.8125 -40.675781 C 12.734375 -40.828125 12.734375 -41.0625 12.65625 -41.214844 Z M 18.136719 -6.484375 C 18.445312 -8.335938 19.0625 -9.109375 18.832031 -11.886719 C 18.445312 -16.515625 18.0625 -21.148438 17.289062 -25.625 L 16.671875 -25.625 C 17.597656 -19.296875 17.828125 -12.890625 18.136719 -6.484375 Z M 18.136719 -6.484375 "/></g></g></g></svg>